<?xml version="1.0" encoding="UTF-8" standalone="no"?>
<svg
   width="1355"
   height="1208.198"
   viewBox="-936 0 1355 1208.198"
   version="1.2"
   id="svg88"
   sodipodi:docname="wireframe-ex4.svg"
   inkscape:version="1.4 (e7c3feb1, 2024-10-09)"
   xmlns:inkscape="http://www.inkscape.org/namespaces/inkscape"
   xmlns:sodipodi="http://sodipodi.sourceforge.net/DTD/sodipodi-0.dtd"
   xmlns="http://www.w3.org/2000/svg"
   xmlns:svg="http://www.w3.org/2000/svg"
   xmlns:rdf="http://www.w3.org/1999/02/22-rdf-syntax-ns#"
   xmlns:cc="http://creativecommons.org/ns#"><defs
   id="defs88" />
<sodipodi:namedview
   id="namedview88"
   pagecolor="#ffffff"
   bordercolor="#000000"
   borderopacity="0.25"
   inkscape:showpageshadow="2"
   inkscape:pageopacity="0.0"
   inkscape:pagecheckerboard="0"
   inkscape:deskcolor="#d1d1d1"
   inkscape:zoom="0.27513227"
   inkscape:cx="746.91347"
   inkscape:cy="463.41347"
   inkscape:window-width="1512"
   inkscape:window-height="916"
   inkscape:window-x="0"
   inkscape:window-y="38"
   inkscape:window-maximized="1"
   inkscape:current-layer="svg88" />

\n<g
   id="g89">
  <g
     id="g1"
     transform="translate(-192.49,-256.802)">
    <path
       fill="none"
       stroke="#000000"
       stroke-width="4"
       stroke-linecap="round"
       stroke-linejoin="round"
       d="m -737.51,258.802 h 1346"
       id="path1" />
  </g>
  <g
     id="g2"
     transform="translate(-192.49,-256.802)">
    <path
       fill="none"
       stroke="#000000"
       stroke-width="4"
       stroke-linecap="round"
       stroke-linejoin="round"
       d="M 609.49,260.802 V 1195.8"
       id="path2" />
  </g>
  <g
     id="g3"
     transform="translate(-192.49,-256.802)">
    <path
       fill="none"
       stroke="#000000"
       stroke-width="4"
       stroke-linecap="round"
       stroke-linejoin="round"
       d="m -741.51,1196.8 h 1350"
       id="path3" />
  </g>
  <g
     id="g4"
     transform="translate(-192.49,-256.802)">
    <path
       fill="none"
       stroke="#000000"
       stroke-width="4"
       stroke-linecap="round"
       stroke-linejoin="round"
       d="M -739.51,261.802 V 1193.8"
       id="path4" />
  </g>
  <g
     id="g5"
     transform="translate(-192.49,-256.802)">
    <path
       fill="none"
       stroke="#000000"
       stroke-width="4"
       stroke-linecap="round"
       stroke-linejoin="round"
       d="m -324.51,1295.8 h 519"
       id="path5" />
  </g>
  <g
     id="g6"
     transform="translate(-192.49,-256.802)">
    <path
       fill="none"
       stroke="#000000"
       stroke-width="4"
       stroke-linecap="round"
       stroke-linejoin="round"
       d="m 142.49,1273.8 54,21"
       id="path6" />
  </g>
  <g
     id="g7"
     transform="translate(-192.49,-256.802)">
    <path
       fill="none"
       stroke="#000000"
       stroke-width="4"
       stroke-linecap="round"
       stroke-linejoin="round"
       d="m 143.49,1315.8 51,-18"
       id="path7" />
  </g>
  <g
     id="g8"
     transform="translate(-192.49,-256.802)">
    <path
       fill="none"
       stroke="#000000"
       stroke-width="4"
       stroke-linecap="round"
       stroke-linejoin="round"
       d="m -305.494,1357.98 0.262,0.44 -0.173,-0.21 -1.009,2.05 -2.588,7.9 -0.177,2.05 -1.319,4.82 -0.48,4.12 -1.674,8.79 -0.165,8.65 0.348,0.24 -0.069,0.39 0.668,1.24 3.499,1.4 5.255,-0.53 2.911,-0.64 4.333,-0.15 3.863,-0.8 5.656,0.01 -1.457,0.64"
       id="path8" />
  </g>
  <g
     id="g9"
     transform="translate(-192.49,-256.802)">
    <path
       fill="none"
       stroke="#000000"
       stroke-width="4"
       stroke-linecap="round"
       stroke-linejoin="round"
       d="m -282.125,1390.24 1.88,0.45 3.215,-0.14 1.297,-0.73 3.485,-1.11 2.197,-2.21 0.866,-0.29 3.253,-7.72 -0.614,-3.53 -0.967,-0.3 -1.204,-0.98 -2.097,0.3 -3.437,1.57 -2.037,1.89 -1.284,2.31 -1.955,2.14 -3.573,7.11 -0.3,1.56 0.222,2.56 1.359,2.77 1.253,0.79 4.507,1.29 5.661,-0.18 4.352,-0.67 6.685,-0.17 1.188,-0.34 3.381,0.07"
       id="path9" />
  </g>
  <g
     id="g10"
     transform="translate(-192.49,-256.802)">
    <path
       fill="none"
       stroke="#000000"
       stroke-width="4"
       stroke-linecap="round"
       stroke-linejoin="round"
       d="m -250.149,1379.24 -0.011,4.96 1.836,6.8 2.251,5.63 1.91,1 1.795,-1.03 1.874,-2.4 4.183,-7.04 4.167,-5.53 1.589,-3.62"
       id="path10" />
  </g>
  <g
     id="g11"
     transform="translate(-192.49,-256.802)">
    <path
       fill="none"
       stroke="#000000"
       stroke-width="4"
       stroke-linecap="round"
       stroke-linejoin="round"
       d="m -223.424,1389.02 0.043,0.21 2.616,-0.67 7.783,-2.62 3.285,-1.8 0.641,-1.48 0.022,-1.41 -2.069,-2.01 -2.931,-1.52 -1.223,-0.25 -1.383,0.09 -2.808,1.58 -1.41,1.62 -5.347,8.36 -1.238,3.1 1.143,3.29 3.647,1.45 2.808,-0.18 6.593,-1.43 2.077,-0.97 3.687,-0.73 4.991,-1.75"
       id="path11" />
  </g>
  <g
     id="g12"
     transform="translate(-192.49,-256.802)">
    <path
       fill="none"
       stroke="#000000"
       stroke-width="4"
       stroke-linecap="round"
       stroke-linejoin="round"
       d="m -181.575,1355.9 -1.635,2.53 -2.24,5.82 -2.145,7.25 -5.652,16.43 -1.664,8.72 0.264,5.31 0.295,0.69 0.535,-0.88"
       id="path12" />
  </g>
  <g
     id="g13"
     transform="translate(-192.49,-256.802)">
    <path
       fill="none"
       stroke="#000000"
       stroke-width="4"
       stroke-linecap="round"
       stroke-linejoin="round"
       d="m -120.604,1379.65 -2.51,-0.67 -1.698,0.15 -3.678,2.17 -3.597,4.82 -0.335,1.42 0.164,2.62 0.983,1.7 0.962,0.89 4.525,1.44 6.341,-1.49 1.378,-0.62 3.171,-1.8 2.344,-2.01 0.909,-2.68 -0.083,-1.28 -2.029,-2.46 -1.426,-0.88 -2.504,-0.8 -5.014,0.22 -5.212,0.98 -1.608,1.12 0.1,0.88 0.593,0.41"
       id="path13" />
  </g>
  <g
     id="g14"
     transform="translate(-192.49,-256.802)">
    <path
       fill="none"
       stroke="#000000"
       stroke-width="4"
       stroke-linecap="round"
       stroke-linejoin="round"
       d="m -83.574,1366.44 -4.7304,-3.13 -1.7615,0.1 -1.1123,0.72 -3.6157,3.36 -2.4992,5.1 -1.6117,5.44 -0.2945,2.56 0.2024,3.95 1.7574,8.78 1.9904,5.49 1.2393,5.79 1.2854,3.48 -0.1641,1.2 0.293,1.06 -2.0467,0.28 -0.6759,-0.6"
       id="path14" />
  </g>
  <g
     id="g15"
     transform="translate(-192.49,-256.802)">
    <path
       fill="none"
       stroke="#000000"
       stroke-width="4"
       stroke-linecap="round"
       stroke-linejoin="round"
       d="m -115.683,1399.07 1.891,-1.3 3.547,-1.71 3.256,-0.63 4.402,-1.39 8.3209,-0.13"
       id="path15" />
  </g>
  <g
     id="g16"
     transform="translate(-192.49,-256.802)">
    <path
       fill="none"
       stroke="#000000"
       stroke-width="4"
       stroke-linecap="round"
       stroke-linejoin="round"
       d="m -32.2059,1367.11 0.915,4.84 -0.2118,8.48 -0.3349,2.04 0.1031,5.12 0.6322,4.68 1.1724,2.62"
       id="path16" />
  </g>
  <g
     id="g17"
     transform="translate(-192.49,-256.802)">
    <path
       fill="none"
       stroke="#000000"
       stroke-width="4"
       stroke-linecap="round"
       stroke-linejoin="round"
       d="m -37.661,1365.34 0.9358,-1.93 2.2731,-1.65 4.2316,0.02 3.4208,1.02 4.8925,3.44 0.9356,1.06 1.2732,2.29 1.309,6.53 -0.0636,1.81 -1.5432,6.32 -2.8827,7.18 -2.8196,5.28 -3.7717,4.19 -1.2564,0.71 -2.995,0.8 -2.0761,1.21 -2.9743,-0.51 -0.5287,-2.19 0.7934,-1.04"
       id="path17" />
  </g>
  <g
     id="g18"
     transform="translate(-192.49,-256.802)">
    <path
       fill="none"
       stroke="#000000"
       stroke-width="4"
       stroke-linecap="round"
       stroke-linejoin="round"
       d="m -14.6074,1395.58 3.2749,-0.84 5.77513,-2.13 2.76941,-1.6 1.156,-2.5 -0.11169,-0.7 -1.00025,-1.5 -2.7417,-0.93 -2.77746,0.18 -4.02854,1.41 -2.7067,1.91 -2.1007,2.32 -1.0796,1.28 -2.5495,4.34 0.0134,3.43 0.9549,1.92 4.7323,1.6 5.72525,-0.19 5.81922,-0.96 13.78933,-5.36 1.0357,-0.14"
       id="path18" />
  </g>
  <g
     id="g19"
     transform="translate(-192.49,-256.802)">
    <path
       fill="none"
       stroke="#000000"
       stroke-width="4"
       stroke-linecap="round"
       stroke-linejoin="round"
       d="m 17.6649,1358.48 0.376,2.09 -0.0883,15.08 -0.9928,7.08 -0.1148,10.1 -0.3837,2.02 0.0814,8.26"
       id="path19" />
  </g>
  <g
     id="g20"
     transform="translate(-192.49,-256.802)">
    <path
       fill="none"
       stroke="#000000"
       stroke-width="4"
       stroke-linecap="round"
       stroke-linejoin="round"
       d="m 5.60742,1374.9 4.83118,0.02 3.2732,-1 2.8524,-0.19 2.3247,-0.99 3.2637,-0.11"
       id="path20" />
  </g>
  <g
     id="g21"
     transform="translate(-192.49,-256.802)">
    <path
       fill="none"
       stroke="#000000"
       stroke-width="4"
       stroke-linecap="round"
       stroke-linejoin="round"
       d="m 43.713,1391.26 0.7518,-3.16 0.6773,-1.12 -0.1674,-2.92 -0.9203,-1.8 -3.4376,-2.11 -2.5284,0.16 -3.094,1.72 -2.5375,3.52 -1.3861,4.29 0.1122,7.4 0.6626,1.58 1.3367,0.58 1.2498,0.05 1.8804,-1.11 5.2865,-5.43 0.8053,-2.03 0.3654,-0.17 0.8393,-1.59 -0.182,0.2 1.567,2.75 1.1669,3.03 3.6058,3.87 0.5681,1.89 1.5483,1.42 0.3105,-0.11 1.6177,1.03 0.3701,-0.06"
       id="path21" />
  </g>
  <g
     id="g22"
     transform="translate(-192.49,-256.802)">
    <path
       fill="none"
       stroke="#000000"
       stroke-width="4"
       stroke-linecap="round"
       stroke-linejoin="round"
       d="m 61.5988,1383.25 0.2745,10.04 0.5088,3.08 0.0473,4.78 0.3655,0.75"
       id="path22" />
  </g>
  <g
     id="g23"
     transform="translate(-192.49,-256.802)">
    <path
       fill="none"
       stroke="#000000"
       stroke-width="4"
       stroke-linecap="round"
       stroke-linejoin="round"
       d="m 59.1964,1365.28 0.0072,0.1"
       id="path23" />
  </g>
  <g
     id="g24"
     transform="translate(-192.49,-256.802)">
    <path
       fill="none"
       stroke="#000000"
       stroke-width="4"
       stroke-linecap="round"
       stroke-linejoin="round"
       d="m 75.0787,1357.33 0.3197,0.31 -0.2124,-0.13 -0.122,0.31 -1.211,4.33 -0.5766,5.43 -0.9191,3.59 -0.8755,8.55 0.1125,3.41 -0.6577,5.82 0.0799,3.55 -0.4972,2.66 0.1019,7.11 0.3212,1.59 0.4564,0.9 1.1827,-1.2"
       id="path24" />
  </g>
  <g
     id="g25"
     transform="translate(-192.49,-256.802)">
    <path
       fill="none"
       stroke="#000000"
       stroke-width="4"
       stroke-linecap="round"
       stroke-linejoin="round"
       d="m -654.038,429.664 0.077,0.589 -0.045,-0.311 -3.333,-1.74 -5.243,1.373 -3.851,1.671 -5.562,3.893 -2.561,2.301 -3.667,4.534 -2.973,5.137 -2.47,7.614 -0.222,1.37 0.243,2.723 0.712,2.169 1.534,2.93 3.902,2.897 4.106,0.839 3.121,-0.113 5.522,-1.76 1.623,-1.565 1.809,-0.676 -0.215,0.043 0.209,-0.925 0.696,-1.569 -0.304,-0.95 -1.044,-0.213 -0.849,-0.8 -1.836,-0.963 -1.85,0.166 1.949,0.695 3.202,-0.197 8.481,-2.137 3.772,-1.378"
       id="path25" />
  </g>
  <g
     id="g26"
     transform="translate(-192.49,-256.802)">
    <path
       fill="none"
       stroke="#000000"
       stroke-width="4"
       stroke-linecap="round"
       stroke-linejoin="round"
       d="m -627.377,426.075 -4.286,13.676 -4.356,17.859 -0.548,4.952 0.04,5.236 0.341,0.408"
       id="path26" />
  </g>
  <g
     id="g27"
     transform="translate(-192.49,-256.802)">
    <path
       fill="none"
       stroke="#000000"
       stroke-width="4"
       stroke-linecap="round"
       stroke-linejoin="round"
       d="m -609.918,447.527 0.006,-0.205 -3.679,0.11 -2.958,1.315 -1.343,0.973 -3.111,5.372 0.184,2.607 0.812,2.173 1.25,1.746 1.403,0.938 3.82,0.554 2.923,-0.98 3.668,-1.846 2.775,-2.118 2.752,-3.499 0.878,-3.05 -0.668,-1.692 -1.582,-1.607 -2.244,-1.469 -2.21,-0.424 -4.413,0.184 -5.541,1.401 -2.083,0.995 -1.165,1.336"
       id="path27" />
  </g>
  <g
     id="g28"
     transform="translate(-192.49,-256.802)">
    <path
       fill="none"
       stroke="#000000"
       stroke-width="4"
       stroke-linecap="round"
       stroke-linejoin="round"
       d="m -582.598,422.419 -4.399,6.423 -2.145,5.488 -1.572,6.118 -0.889,2.308 -0.416,2.524 0.297,6.536 1.009,1.631 2.647,0.948 1.068,-0.131 6.357,-2.492 0.845,-0.652 3.383,-1.071 3.34,0.129 1.289,2.524 0.874,2.712 -0.079,0.847 -1.493,3.904 -1.164,2.158 -2.062,2.016 -4.807,1.919 -1.66,-0.163 -2.313,-1.05 -3.881,-2.712 -3.238,-3.464 -0.35,-1.28"
       id="path28" />
  </g>
  <g
     id="g29"
     transform="translate(-192.49,-256.802)">
    <path
       fill="none"
       stroke="#000000"
       stroke-width="4"
       stroke-linecap="round"
       stroke-linejoin="round"
       d="m -547.829,451.01 -1.957,-3.22 -1.269,-1.069 -1.388,-0.642 -3.759,0.967 -2.34,1.46 -3.332,3.631 -2.364,5.005 -2.067,6.225 0.241,2.536 0.328,0.553 1.632,0.236 4.926,-2.655 4.614,-3.774 1.658,-1.807 3.036,-2.085 1.886,-1.818 -0.148,0.661 0.688,1.813 -0.116,3.846 2.073,3.192 1.503,0.561 1.256,-0.153 1.677,-0.73 3.244,-2.704"
       id="path29" />
  </g>
  <g
     id="g30"
     transform="translate(-192.49,-256.802)">
    <path
       fill="none"
       stroke="#000000"
       stroke-width="4"
       stroke-linecap="round"
       stroke-linejoin="round"
       d="m -523.453,416.185 -2.25,22.079 0.128,19.774 2.319,8.594 1.841,0.541"
       id="path30" />
  </g>
  <g
     id="g31"
     transform="translate(-192.49,-256.802)">
    <path
       fill="none"
       stroke="#000000"
       stroke-width="4"
       stroke-linecap="round"
       stroke-linejoin="round"
       d="m -173.276,444.565 -0.05,15.176 6.24,-9.238 3.632,-2.429 1.056,-1.695 1.448,-0.218 0.418,0.351 1.846,4.119 -0.139,7.409 -0.356,0.848 0.072,2.193 -0.635,3.033 -0.207,6.613"
       id="path31" />
  </g>
  <g
     id="g32"
     transform="translate(-192.49,-256.802)">
    <path
       fill="none"
       stroke="#000000"
       stroke-width="4"
       stroke-linecap="round"
       stroke-linejoin="round"
       d="m -379.975,469.285 4.279,-7.591 3.903,-9.093 2.972,-5.404 0.764,-1.947 5.694,-10.055 4.592,-9.001 0.34,0.948 0.006,1.669 -2.061,12.3 -0.763,8.206 0.175,7.393 0.455,4.599 1.064,3.761 0.272,0.439 1.132,0.382 2.56,-1.732 1.686,-2.252 1.641,-3.49 3.995,-6.984 7.134,-11.41 7.713,-15.686 1.609,-2.46 1.881,-2.077 0.757,-0.242 0.811,0.217"
       id="path32" />
  </g>
  <g
     id="g33"
     transform="translate(-192.49,-256.802)">
    <path
       fill="none"
       stroke="#000000"
       stroke-width="4"
       stroke-linecap="round"
       stroke-linejoin="round"
       d="m -315.191,449.026 -1.035,-3.686 -2.55,-2.197 -1.915,0.13 -3.268,1.386 -3.351,2.822 -2.443,3.017 -3.007,6.588 -0.439,2.313 0.158,1.981 1.714,0.242 2.622,-1.957 7.444,-7.41 1.785,-2.048 0.411,-0.968 0.773,2.41 -0.188,3.335 1.614,4.04 0.945,0.845 4.605,1.753 2.164,-0.186"
       id="path33" />
  </g>
  <g
     id="g34"
     transform="translate(-192.49,-256.802)">
    <path
       fill="none"
       stroke="#000000"
       stroke-width="4"
       stroke-linecap="round"
       stroke-linejoin="round"
       d="m -302.537,444.727 0.332,7.501 1.926,8.025 0.99,2.241 0.764,0.219 1.077,-0.133 1.423,-0.868 1.939,-2.724 1.07,-2.528 1.597,-5.833 1.413,-3.008 -0.176,-1.647 0.547,0.011 0.479,-0.448"
       id="path34" />
  </g>
  <g
     id="g35"
     transform="translate(-192.49,-256.802)">
    <path
       fill="none"
       stroke="#000000"
       stroke-width="4"
       stroke-linecap="round"
       stroke-linejoin="round"
       d="m -279.554,444.824 -0.02,10.183 0.519,0.963"
       id="path35" />
  </g>
  <g
     id="g36"
     transform="translate(-192.49,-256.802)">
    <path
       fill="none"
       stroke="#000000"
       stroke-width="4"
       stroke-linecap="round"
       stroke-linejoin="round"
       d="m -280.719,431.378 0.017,0.159"
       id="path36" />
  </g>
  <g
     id="g37"
     transform="translate(-192.49,-256.802)">
    <path
       fill="none"
       stroke="#000000"
       stroke-width="4"
       stroke-linecap="round"
       stroke-linejoin="round"
       d="m -259.301,446.039 -4.655,-3.803 -0.932,-0.211 -2.724,0.414 -2.895,1.587 -1.658,2.103 -2.976,6.203 0.229,2.683 2.031,0.404 6.805,-4.653 1.513,-1.748 0.587,-1.285 1.313,0.815 2.803,5.832 1.49,5.585 1.882,17.568 -0.074,2.79 -0.833,5.011 -2.342,7.653 -3.104,4.371 -2.384,1.952 -2.247,0.925 -2.786,0.585 -1.131,-0.056 -2.819,-1.517 -1.695,-1.463 -4.819,-6.08 -1.911,-4.52 -1.47,-7.118 0.168,-2.406 0.92,-4.259 0.918,-2.038 1.854,-2.311 1.967,-1.697 9.432,-4.276 2.391,-0.635"
       id="path37" />
  </g>
  <g
     id="g38"
     transform="translate(-192.49,-256.802)">
    <path
       fill="none"
       stroke="#000000"
       stroke-width="4"
       stroke-linecap="round"
       stroke-linejoin="round"
       d="m -240.568,453.144 1.026,-3.656 -0.238,-1.708 -0.169,-0.468 -2.159,0.002 -1.546,1.024 -1.701,1.867 -3.098,4.881 -0.404,1.747 0.17,1.386 0.908,-0.059 3.006,-2.107 5.599,-6.51 1.577,-1.362 0.489,-1.288 2.733,7.895 1.87,1.562 3.904,1.186 1.256,-0.101 1.621,-0.618"
       id="path38" />
  </g>
  <g
     id="g39"
     transform="translate(-192.49,-256.802)">
    <path
       fill="none"
       stroke="#000000"
       stroke-width="4"
       stroke-linecap="round"
       stroke-linejoin="round"
       d="m -208.885,412.27 -1.274,1.966 -1.228,3.971 -1.437,13.133 0.147,12.597 1.537,10.577 0.823,2.613"
       id="path39" />
  </g>
  <g
     id="g40"
     transform="translate(-192.49,-256.802)">
    <path
       fill="none"
       stroke="#000000"
       stroke-width="4"
       stroke-linecap="round"
       stroke-linejoin="round"
       d="m -228.072,443.741 2.079,-0.328 12.054,0.585 6.012,-0.263"
       id="path40" />
  </g>
  <g
     id="g41"
     transform="translate(-192.49,-256.802)">
    <path
       fill="none"
       stroke="#000000"
       stroke-width="4"
       stroke-linecap="round"
       stroke-linejoin="round"
       d="m -190.417,442.264 -3.07,0.682 -2.843,3.837 -0.563,2.234 0.153,3.77 1.113,4.035 0.626,0.793 2.386,1.557 2.993,0.644 1.169,-0.059 2.798,-0.965 3.152,-1.553 2.754,-2.324 2.074,-3.303 0.842,-3.175 -0.466,-1.305 -2.786,-1.835 -3.834,-1.499 -1.387,-0.204 -2.734,0.276 -5.969,2.16 -1.678,1.666"
       id="path41" />
  </g>
  <g
     id="g42"
     transform="translate(-192.49,-256.802)">
    <path
       fill="none"
       stroke="#000000"
       stroke-width="4"
       stroke-linecap="round"
       stroke-linejoin="round"
       d="m -205.468,442.453 0.961,2.21 1.453,5.039 -0.25,8.992"
       id="path42" />
  </g>
  <g
     id="g43"
     transform="translate(-192.49,-256.802)">
    <path
       fill="none"
       stroke="#000000"
       stroke-width="4"
       stroke-linecap="round"
       stroke-linejoin="round"
       d="m -202.758,426.373 0.005,0.17"
       id="path43" />
  </g>
  <g
     id="g44"
     transform="translate(-192.49,-256.802)">
    <path
       fill="none"
       stroke="#000000"
       stroke-width="4"
       stroke-linecap="round"
       stroke-linejoin="round"
       d="m -67.4065,429.759 0.8811,-3.755 0.9099,-2.096 -1.1528,-2.97 -0.9586,-0.865 -0.8822,-0.294 -4.091,1.096 -1.1231,0.638 -3.8735,3.818 -4.8276,7.12 -1.4658,3.12 -0.5916,3.075 -1.821,5.314 0.3202,3.43 0.657,2.01 0.9708,1.63 1.663,0.839 4.9495,1.394 3.9195,-0.028 2.2352,0.366 2.5543,1.631 0.75,2.658 -2.1052,2.941 -1.3344,1.297 -4.249,2.987 -6.6922,3.932 -6.9532,2.14 -1.7277,1.05 -0.6716,-0.124"
       id="path44" />
  </g>
  <g
     id="g45"
     transform="translate(-192.49,-256.802)">
    <path
       fill="none"
       stroke="#000000"
       stroke-width="4"
       stroke-linecap="round"
       stroke-linejoin="round"
       d="m -59.9642,452.779 -0.2395,-0.3 0.1474,0.256 -1.9779,4.623 -0.5804,3.658 0.1152,4.398 0.7108,1.529 0.0088,0.802 1.8711,0.372 5.5861,-5.322 2.0913,-4.161 2.4997,-3.216 0.8476,-1.817 0.7378,2.807 -0.1783,6.005 -0.3309,1.064 0.2205,4.922"
       id="path45" />
  </g>
  <g
     id="g46"
     transform="translate(-192.49,-256.802)">
    <path
       fill="none"
       stroke="#000000"
       stroke-width="4"
       stroke-linecap="round"
       stroke-linejoin="round"
       d="m -34.62,422.362 -2.6138,7.454 -3.0233,12.297 -1.6809,5.466 -0.3063,2.659 0.3222,6.766 1.4905,3.526 2.1901,0.967 1.3713,-0.101 4.6222,-1.93 1.6938,-1.652 1.6875,-1.118 2.0798,-2.259 1.2871,-0.476 1.2002,0.041 0.3658,0.322 1.1366,3.942 -0.1913,2.496 -1.386,3.782 -2.6661,2.467 -4.0084,1.762 -1.7329,-0.17 -1.7517,-0.903 -2.2131,-1.581 -3.7977,-4.014 -0.4289,-0.031 0.2047,0.222"
       id="path46" />
  </g>
  <g
     id="g47"
     transform="translate(-192.49,-256.802)">
    <path
       fill="none"
       stroke="#000000"
       stroke-width="4"
       stroke-linecap="round"
       stroke-linejoin="round"
       d="m -16.2841,451.518 0.2255,-4.829 -1.4244,2.997 -0.5181,1.833 -0.5218,4.238 0.0855,8.046 1.6135,-0.912 2.4555,-2.679 1.6147,-2.552 3.06974,-3.079 1.23743,-0.721 1.66491,-2.264 1.00989,0.272 1.83167,5.592 -0.17554,3.034 0.3125,3.726"
       id="path47" />
  </g>
  <g
     id="g48"
     transform="translate(-192.49,-256.802)">
    <path
       fill="none"
       stroke="#000000"
       stroke-width="4"
       stroke-linecap="round"
       stroke-linejoin="round"
       d="m 9.2793,454.278 0.58557,-2.957 -0.11768,-0.691 -0.87292,-1.133 -1.40369,-0.396 -1.03784,0.139 -2.0669,0.902 -1.94506,1.403 -2.018558,2.932 -2.772952,5.865 -0.54712,2.175 0.15076,2.006 1.29065,0.055 3.8645,-2.955 3.68738,-4.951 1.39661,-2.482 2.25,-2.553 0.66305,-1.506 1.1951,3.238 -0.1705,9.641 0.3851,-0.276"
       id="path48" />
  </g>
  <g
     id="g49"
     transform="translate(-192.49,-256.802)">
    <path
       fill="none"
       stroke="#000000"
       stroke-width="4"
       stroke-linecap="round"
       stroke-linejoin="round"
       d="m 17.8844,450.869 0.1938,9.157 0.3112,1.983 1.4938,2.951 1.7156,-1.066 2.1961,-2.39 0.8347,-1.576 3.1567,-4.239 2.0626,-3.749 2.9519,-3.734 0.5353,-1.249 0.0282,0.821 0.5578,1.097 -0.1147,3.083"
       id="path49" />
  </g>
  <g
     id="g50"
     transform="translate(-192.49,-256.802)">
    <path
       fill="none"
       stroke="#000000"
       stroke-width="4"
       stroke-linecap="round"
       stroke-linejoin="round"
       d="m 39.9988,451.447 -1.6946,6.874 -0.1326,6.878"
       id="path50" />
  </g>
  <g
     id="g51"
     transform="translate(-192.49,-256.802)">
    <path
       fill="none"
       stroke="#000000"
       stroke-width="4"
       stroke-linecap="round"
       stroke-linejoin="round"
       d="m 42.3915,437.215 10e-5,0.097"
       id="path51" />
  </g>
  <g
     id="g52"
     transform="translate(-192.49,-256.802)">
    <path
       fill="none"
       stroke="#000000"
       stroke-width="4"
       stroke-linecap="round"
       stroke-linejoin="round"
       d="m 54.7844,452.907 -1.6229,-2.477 -1.6183,-1.488 -1.6914,0.056 -1.6877,0.974 -1.7504,1.942 -2.4501,4.997 -0.3082,1.717 0.1644,3.592 0.5252,0.859 1.7608,0.38 1.4373,-0.442 2.5788,-1.991 2.1282,-2.662 3.491,-8.009 -1.3129,2.619 0.2332,1.387 -0.3333,1.359 0.0348,5.802 0.5144,3.937 0.0729,10.647 -0.5396,4.405 -2.8659,12.945 -1.2617,1.812 -2.2558,2.124 -2.8476,0.722 -2.0766,-1.019 -2.3985,-2.02 -2.4878,-3.407 -1.9499,-3.324 -1.1124,-3.444 -0.217,-1.454 0.1966,-2.557 0.5402,-1.632 1.5609,-2.362 4.0942,-2.83 4.6736,-1.721"
       id="path52" />
  </g>
  <g
     id="g53"
     transform="translate(-192.49,-256.802)">
    <path
       fill="none"
       stroke="#000000"
       stroke-width="4"
       stroke-linecap="round"
       stroke-linejoin="round"
       d="m 74.9218,450.449 -1.0412,-1.001 -3.8904,-1.711 -1.5501,0.398 -3.5436,2.266 -3.1798,4.871 -0.4341,1.751 0.1321,3.333 0.5149,0.568 1.9823,0.721 3.7127,-1.472 4.2124,-3.863 2.1167,-2.738 0.8985,-0.792 0.7719,-0.117 1.2785,3.293 -0.1899,3.368 0.6342,3.088 2.1952,1.104 2.0101,-0.867"
       id="path53" />
  </g>
  <g
     id="g54"
     transform="translate(-192.49,-256.802)">
    <path
       fill="none"
       stroke="#000000"
       stroke-width="4"
       stroke-linecap="round"
       stroke-linejoin="round"
       d="m 96.6039,422.483 -0.9057,1.962 -2.0899,6.618 -2.2038,8.132 -1.0115,6.06 -1.8187,13.043 0.1701,5.463 0.3256,1.262 0.4777,0.765 0.3963,-0.083"
       id="path54" />
  </g>
  <g
     id="g55"
     transform="translate(-192.49,-256.802)">
    <path
       fill="none"
       stroke="#000000"
       stroke-width="4"
       stroke-linecap="round"
       stroke-linejoin="round"
       d="m 82.5075,451.008 1.2247,-0.946 4.2062,-2.044 1.5936,-0.252 3.074,0.182 4.6951,1.687 2.2898,1.374 1.6351,1.837 1.109,4.07 -0.112,1.255 -1.084,1.717 -2.7795,8.462"
       id="path55" />
  </g>
  <g
     id="g56"
     transform="translate(-192.49,-256.802)">
    <path
       fill="none"
       stroke="#000000"
       stroke-width="4"
       stroke-linecap="round"
       stroke-linejoin="round"
       d="m 104.351,437.829 -0.001,-0.095"
       id="path56" />
  </g>
  <g
     id="g57"
     transform="translate(-192.49,-256.802)">
    <path
       fill="none"
       stroke="#000000"
       stroke-width="4"
       stroke-linecap="round"
       stroke-linejoin="round"
       d="m 116.321,452.033 -3.382,0.667 -1.827,1.111 -1.352,2.421 -2.301,2.212 -0.532,2.064 0.136,2.179 1.385,3.217 0.97,1.213 4.102,1.321 3.228,-1.051 4.33,-2.42 2.232,-3.611 1.157,-3.945 -1.322,-2.556 -2.698,-2.308 -3.327,-0.69 -3,0.142 -3.555,1.554 -1.636,2.97 0.596,2.495"
       id="path57" />
  </g>
  <g
     id="g58"
     transform="translate(-192.49,-256.802)">
    <path
       fill="none"
       stroke="#000000"
       stroke-width="4"
       stroke-linecap="round"
       stroke-linejoin="round"
       d="m 134.904,448.285 -1.83,8.041 -0.149,8.281 0.56,1.068 0.792,0.068 2.517,-1.102 3.302,-2.414 2.968,-3.2 2.113,-3.042 2.763,-2.641 0.344,-0.768 0.145,3.113 -0.895,2.426 -0.467,3.56 0.093,1.939 -0.68,1.704 0.106,4.273 1.691,0.341"
       id="path58" />
  </g>
  <g
     id="g59"
     transform="translate(-192.49,-256.802)">
    <path
       fill="none"
       stroke="#000000"
       stroke-width="4"
       stroke-linecap="round"
       stroke-linejoin="round"
       d="M -434,259 V 627"
       id="path59" />
  </g>
  <g
     id="g60"
     transform="translate(-192.49,-256.802)">
    <path
       fill="none"
       stroke="#000000"
       stroke-width="4"
       stroke-linecap="round"
       stroke-linejoin="round"
       d="M -117,260 V 626"
       id="path60" />
  </g>
  <g
     id="g61"
     transform="translate(-192.49,-256.802)">
    <path
       fill="none"
       stroke="#000000"
       stroke-width="4"
       stroke-linecap="round"
       stroke-linejoin="round"
       d="M 194,260 V 621"
       id="path61" />
  </g>
  <g
     id="g62"
     transform="translate(-192.49,-256.802)">
    <path
       fill="none"
       stroke="#000000"
       stroke-width="4"
       stroke-linecap="round"
       stroke-linejoin="round"
       d="M -738,625 H 609"
       id="path62" />
  </g>
  <g
     id="g63"
     transform="translate(-192.49,-256.802)">
    <path
       fill="none"
       stroke="#000000"
       stroke-width="4"
       stroke-linecap="round"
       stroke-linejoin="round"
       d="m -178.454,891.734 0.43,-1.817 -0.141,-1.836 -1.787,-1.515 -4.79,1.114 -1.453,0.641 -8.912,5.262 -4.385,3.959 -2.49,3.303 -7.039,7.073 -1.919,4.029 -1.356,4.288 0.033,2.368 0.918,2.896 0.611,0.816 4.05,2.492 6.303,1.903 4.041,1.016 4.59,0.596 9.992,2.335 10.126,-1.289"
       id="path63" />
  </g>
  <g
     id="g64"
     transform="translate(-192.49,-256.802)">
    <path
       fill="none"
       stroke="#000000"
       stroke-width="4"
       stroke-linecap="round"
       stroke-linejoin="round"
       d="m -138.063,906.834 -3.216,-1.183 -2.749,0.289 -4.924,1.149 -7.341,5.896 -2.723,6.251 0.328,2.865 0.681,2.323 0.959,1.586 1.854,1.009 4.067,0.827 1.429,-0.058 3.765,-0.96 4.376,-1.855 4.504,-2.746 2.792,-2.948 0.648,-1.207 0.693,-2.911 -1.015,-2.471 -1.625,-1.583 -2.443,-1.697 -7.15,-3.086 -2.016,-0.412 -2.861,0.178 -3.058,1.534 -0.511,1.019 0.406,0.647"
       id="path64" />
  </g>
  <g
     id="g65"
     transform="translate(-192.49,-256.802)">
    <path
       fill="none"
       stroke="#000000"
       stroke-width="4"
       stroke-linecap="round"
       stroke-linejoin="round"
       d="m -124.408,906.549 -1.574,4.563 -0.343,2.179 -1.158,2.702 -1.428,6.367 0.16,2.791 0.128,-0.205 2.065,0.174 16.08,-10.968 0.494,-0.589 1.452,-0.527 0.992,0.135 1.163,2.994 -0.364,2.615 0.068,3.823 -0.501,2.831 0.084,3.99"
       id="path65" />
  </g>
  <g
     id="g66"
     transform="translate(-192.49,-256.802)">
    <path
       fill="none"
       stroke="#000000"
       stroke-width="4"
       stroke-linecap="round"
       stroke-linejoin="round"
       d="m -77.65,888.131 -3.128,7.359 -3.6474,11.651 -1.1079,5.422 -1.0791,2.853 -0.6189,3.486 -1.9984,7.397"
       id="path66" />
  </g>
  <g
     id="g67"
     transform="translate(-192.49,-256.802)">
    <path
       fill="none"
       stroke="#000000"
       stroke-width="4"
       stroke-linecap="round"
       stroke-linejoin="round"
       d="m -100.2,904.935 11.0785,2.104 15.7911,0.156"
       id="path67" />
  </g>
  <g
     id="g68"
     transform="translate(-192.49,-256.802)">
    <path
       fill="none"
       stroke="#000000"
       stroke-width="4"
       stroke-linecap="round"
       stroke-linejoin="round"
       d="m -62.8825,914.741 0.0127,-0.289 1.1185,0.286 4.2959,-0.024 8.2197,-2.168 4.766,-3.372 0.7112,-2.006 -0.0807,-0.736 -3.1104,-0.822 -3.6828,0.172 -3.4988,1.033 -5.6034,2.313 -2.5804,1.41 -3.7006,3.284 -1.6602,2.232 -0.9047,0.727 -1.3682,2.349 -0.3685,1.378 0.1597,1.406 1.0315,1.308 10.6517,2.075 16.1352,-0.141"
       id="path68" />
  </g>
  <g
     id="g69"
     transform="translate(-192.49,-256.802)">
    <path
       fill="none"
       stroke="#000000"
       stroke-width="4"
       stroke-linecap="round"
       stroke-linejoin="round"
       d="m -22.1699,905.661 -2.3518,2.538 -2.8481,4.24 -3.808,8.308 -0.6774,3.172 0.1285,2.048 1.5998,0.267 4.4179,-2.282 3.005,-1.125 13.04152,-9.268 4.20752,-3.446 4.12378,-2.603 1.098514,-1.164 -0.20282,2 -0.794554,1.404 -3.21137,8.492 -1.81775,8.029 0.12885,5.961 0.53131,0.383"
       id="path69" />
  </g>
  <g
     id="g70"
     transform="translate(-192.49,-256.802)">
    <path
       fill="none"
       stroke="#000000"
       stroke-width="4"
       stroke-linecap="round"
       stroke-linejoin="round"
       d="m 23.0279,880.858 -0.7293,2.592 -0.7052,4.778 -4.7262,14.906 -2.9873,10.984 -1.1434,2.956 -0.5136,2.942 0.0896,6.2"
       id="path70" />
  </g>
  <g
     id="g71"
     transform="translate(-192.49,-256.802)">
    <path
       fill="none"
       stroke="#000000"
       stroke-width="4"
       stroke-linecap="round"
       stroke-linejoin="round"
       d="m 4.9895,895.671 20.371,0.074 2.826,-0.562 1.9522,0.032"
       id="path71" />
  </g>
  <g
     id="g72"
     transform="translate(-192.49,-256.802)">
    <path
       fill="none"
       stroke="#000000"
       stroke-width="4"
       stroke-linecap="round"
       stroke-linejoin="round"
       d="m 201,1301 v 157"
       id="path72" />
  </g>
  <g
     id="g73"
     transform="translate(-192.49,-256.802)">
    <path
       fill="none"
       stroke="#000000"
       stroke-width="4"
       stroke-linecap="round"
       stroke-linejoin="round"
       d="m 176,1424 23,36"
       id="path73" />
  </g>
  <g
     id="g74"
     transform="translate(-192.49,-256.802)">
    <path
       fill="none"
       stroke="#000000"
       stroke-width="4"
       stroke-linecap="round"
       stroke-linejoin="round"
       d="m 199,1463 24,-37"
       id="path74" />
  </g>
  <g
     id="g75"
     transform="translate(-192.49,-256.802)">
    <path
       fill="none"
       stroke="#000000"
       stroke-width="4"
       stroke-linecap="round"
       stroke-linejoin="round"
       d="m 253.35,421.095 -0.057,0.401 -0.263,-0.642 -0.874,-0.58 -3.735,-1.19 -5.752,1.738 -1.617,0.945 -0.889,0.645 -3.07,3.953 -2.628,6.173 -0.313,1.699 0.211,2.337 1.099,2.617 2.116,2.502 1.367,0.82 9.331,2.767 3.643,1.591 0.942,2.791 -1.291,2.648 -1.85,2.285 -3.585,2.695 -5.048,2.744 -9.599,2.64 -2.479,-0.172"
       id="path75" />
  </g>
  <g
     id="g76"
     transform="translate(-192.49,-256.802)">
    <path
       fill="none"
       stroke="#000000"
       stroke-width="4"
       stroke-linecap="round"
       stroke-linejoin="round"
       d="m 259.226,442.406 -0.829,1.133 -1.913,4.069 -0.435,2.716 0.133,2.907 1.5,3.476 2.39,1.017 0.876,-0.086 1.729,-0.971 5.758,-5.01 1.613,-1.73 0.987,-1.864 -0.008,0.724 0.742,1.596 -0.53,3.147 0.097,5.025 0.789,0.951"
       id="path76" />
  </g>
  <g
     id="g77"
     transform="translate(-192.49,-256.802)">
    <path
       fill="none"
       stroke="#000000"
       stroke-width="4"
       stroke-linecap="round"
       stroke-linejoin="round"
       d="m 284.291,415.486 -2.458,7.808 -2.503,11.496 -0.51,4.058 0.3,7.133 0.898,1.737 2.446,0.91 5.622,-1.754 0.84,0.094 2.111,-0.615 2.672,0.103 1.267,0.981 1.424,3.068 -0.173,1.777 -1.131,3.162 -3.743,5.391 -2.616,2.235 -2.851,0.864 -1.268,0.765 -1.278,-0.558 -0.462,-1.195 -0.642,-0.7 -1.015,-4.096 0.112,-4.554 0.795,-2.502"
       id="path77" />
  </g>
  <g
     id="g78"
     transform="translate(-192.49,-256.802)">
    <path
       fill="none"
       stroke="#000000"
       stroke-width="4"
       stroke-linecap="round"
       stroke-linejoin="round"
       d="m 313.025,446.065 -0.012,-1.836 -0.712,-1.267 -1.022,-0.536 -0.87,0.313 -2.488,1.018 -3.644,2.875 -4.624,4.853 -0.313,0.904 0.356,1.554 4.621,1.766 1.664,-0.159 4.671,0.491 3.628,1.761 0.531,1.575 -0.026,0.619 -1.139,1.505 -4.26,4.678 -2.396,0.77 -1.815,1.082 -1.436,-0.538 -1.132,-1.418 -0.103,-2.383 0.518,-0.857"
       id="path78" />
  </g>
  <g
     id="g79"
     transform="translate(-192.49,-256.802)">
    <path
       fill="none"
       stroke="#000000"
       stroke-width="4"
       stroke-linecap="round"
       stroke-linejoin="round"
       d="m 329.214,444.784 -3.08,1.779 -3.134,2.704 -1.866,4.143 -1.716,2.924 0.298,2.139 0.343,0.394 0.498,-0.086 1.767,0.656 1.337,-0.062 11.87,-6.116 1.638,-1.743 0.48,-0.087 0.128,1.428 -0.707,1.182 -1.244,3.84 0.137,3.575 0.947,0.277 1.526,-0.094"
       id="path79" />
  </g>
  <g
     id="g80"
     transform="translate(-192.49,-256.802)">
    <path
       fill="none"
       stroke="#000000"
       stroke-width="4"
       stroke-linecap="round"
       stroke-linejoin="round"
       d="m 357.516,408.991 -4.002,10.38 -1.632,5.951 -3.642,10.605 -1.847,8.701 0.14,5.244 0.891,1.123 3.131,0.966 1.629,-0.166 1.657,-0.773 0.839,0.086 2.405,-0.574 5.823,0.105 1.245,2.949 -0.178,1.067 -1.536,2.944 -2.432,2.028 -4.513,2.037 -3.743,-0.705 -6.472,-3.356 -1.286,-0.01"
       id="path80" />
  </g>
  <g
     id="g81"
     transform="translate(-192.49,-256.802)">
    <path
       fill="none"
       stroke="#000000"
       stroke-width="4"
       stroke-linecap="round"
       stroke-linejoin="round"
       d="m 374.128,438.144 0.012,2.531 -1.568,6.306 0.168,2.356 -0.32,2.152 0.833,1.595 1.765,0.725 0.575,-0.051 0.68,-0.648 2.591,-1.224 4.743,-3.993 2.041,-0.652 0.841,-0.577 1.161,0.093 0.394,0.175 0.872,2.196 -0.115,0.949 -0.618,1.06 -0.416,1.832 0.13,0.76 -0.619,2.048 0.271,2.521"
       id="path81" />
  </g>
  <g
     id="g82"
     transform="translate(-192.49,-256.802)">
    <path
       fill="none"
       stroke="#000000"
       stroke-width="4"
       stroke-linecap="round"
       stroke-linejoin="round"
       d="m 410.044,445.212 -1.211,-0.983 -2.778,-1.189 -1.078,0.245 -3.782,1.928 -3.97,3.138 -3.936,4.2 -1.14,1.718 -1.721,3.895 0.245,1.262 1.715,0.048 6.685,-3.475 5.757,-4.488 1.866,-0.979 1.533,-1.693 0.102,2.214 -0.665,1.988 0.128,3.209 0.366,0.444 2.089,0.568 2.173,-1.198 3.287,-2.664 4.15,-4.801 1.147,-2.414 0.009,0.796 1.418,2.777 2.101,6.665 0.63,1.279 1.403,0.353 0.644,0.008 1.57,-1.025 2.389,-2.509 2.705,-2.236 4.451,-4.812 0.936,-0.213 1.246,0.642 1.492,4.518 -0.845,5.04 0.163,3.494 0.346,0.467"
       id="path82" />
  </g>
  <g
     id="g83"
     transform="translate(-192.49,-256.802)">
    <path
       fill="none"
       stroke="#000000"
       stroke-width="4"
       stroke-linecap="round"
       stroke-linejoin="round"
       d="m 444.954,438.117 10e-4,-0.109"
       id="path83" />
  </g>
  <g
     id="g84"
     transform="translate(-192.49,-256.802)">
    <path
       fill="none"
       stroke="#000000"
       stroke-width="4"
       stroke-linecap="round"
       stroke-linejoin="round"
       d="m 462.56,448.683 0.133,-3.724 -0.374,-0.502 -0.089,-0.947 -2.324,-0.234 -4.129,2.93 -0.502,1.001 -2.237,2.588 -1.291,2.135 -0.304,1.32 0.188,2.236 0.618,-0.086 1.368,0.699 0.701,-0.022 1.377,-0.654 5.441,-3.889 2.923,-2.893 0.442,-1.01 -0.156,0.346 1.866,5.128 0.558,2.618 -0.175,6.142 -1.245,8.766 -3.77,15.079 -1.41,4.305 -0.92,1.349 -2.153,4.859 -1.716,1.922 -2.533,0.988 -2.252,-2.005 -1.127,-1.896 -1.691,-5.421 -1.695,-7.287 0.366,-5.976 1.501,-6.385 1.401,-2.398 4.803,-6.073 2.78,-2.759 2.077,-1.576 5.964,-3.479 2.646,-0.761 13.581,-6.3 1.222,-1.21 1.949,-0.799 0.553,-0.886 -2.637,1.126 -1.716,1.283 -2.721,2.772 -1.496,3.029 -2.242,3.241 -0.317,0.988 0.221,0.494 0.941,0.207 4.65,-3.252 1.67,-1.87 4.132,-3.407 1.492,-2.048 1.181,-0.752 0.917,-1.866 -1.299,2.828 -0.633,2.221 0.312,7.379 0.989,1.534 3.067,1.083 0.877,-0.073 5.738,-4.16 2.991,-3.269"
       id="path84" />
  </g>
  <g
     id="g85"
     transform="translate(-192.49,-256.802)">
    <path
       fill="none"
       stroke="#000000"
       stroke-width="4"
       stroke-linecap="round"
       stroke-linejoin="round"
       d="m 513.825,426.073 -2.158,3.07 -5.736,20.897 -0.4,4.065"
       id="path85" />
  </g>
  <g
     id="g86"
     transform="translate(-192.49,-256.802)">
    <path
       fill="none"
       stroke="#000000"
       stroke-width="4"
       stroke-linecap="round"
       stroke-linejoin="round"
       d="m 500.845,451.867 1.862,-2.946 0.86,-0.735 3.263,-1.656 1.928,-0.357 3.896,0.184 7.03,1.82 0.785,0.66 2.692,2.774 1.039,3.97 -0.088,1.269"
       id="path86" />
  </g>
  <g
     id="g87"
     transform="translate(-192.49,-256.802)">
    <path
       fill="none"
       stroke="#000000"
       stroke-width="4"
       stroke-linecap="round"
       stroke-linejoin="round"
       d="m 528.17,434.171 0.004,0.085"
       id="path87" />
  </g>
  <g
     id="g88"
     transform="translate(-192.49,-256.802)">
    <path
       fill="none"
       stroke="#000000"
       stroke-width="4"
       stroke-linecap="round"
       stroke-linejoin="round"
       d="m 547.346,445.195 -1.773,-0.07 -2.296,0.776 -2.702,1.54 -2.82,3.061 -0.837,2.784 0.125,4.733 1.159,2.484 3.223,1.162 3.491,-1.102 3.402,-1.844 2.322,-1.683 1.449,-2.373 0.669,-2.559 -0.123,-2.313 -1.17,-3.004 -3.709,-4.222 -0.575,-0.228 -1.688,0.269 -3.641,1.798 -0.681,1.635 0.132,1.348 0.363,0.524 4.158,1.435 0.955,-0.083 7.895,-2.997 7.274,-3.729 1.553,-1.442 1.648,-0.443 0.202,2.605 -1.179,3.04 -0.57,4.382 0.058,3.97 0.74,1.072 1.692,0.518 2.257,-0.118 2.265,-0.894 3.481,-0.811 1.526,-1.011 2.785,-1.108 0.705,2.096 0.053,3.646 0.92,1.142 1.948,1.179 3.293,1.132 6.341,0.69 2.934,-0.146 3.903,-0.827"
       id="path88" />
  </g>
</g>
<metadata
   id="metadata1">
  <rdf:RDF>
    <cc:Work
       rdf:about="" />
  </rdf:RDF>
</metadata>
</svg>
