<?xml version="1.0" encoding="UTF-8" standalone="no"?>
<svg
   width="1872"
   height="1404"
   viewBox="-936 0 1872 1404"
   version="1.2"
   id="svg64"
   sodipodi:docname="Explicit &amp; implicit sizing - page 5.svg"
   inkscape:version="1.4 (e7c3feb1, 2024-10-09)"
   xmlns:inkscape="http://www.inkscape.org/namespaces/inkscape"
   xmlns:sodipodi="http://sodipodi.sourceforge.net/DTD/sodipodi-0.dtd"
   xmlns="http://www.w3.org/2000/svg"
   xmlns:svg="http://www.w3.org/2000/svg"><defs
   id="defs64" />
<sodipodi:namedview
   id="namedview64"
   pagecolor="#ffffff"
   bordercolor="#000000"
   borderopacity="0.25"
   inkscape:showpageshadow="2"
   inkscape:pageopacity="0.0"
   inkscape:pagecheckerboard="0"
   inkscape:deskcolor="#d1d1d1"
   inkscape:zoom="0.018518519"
   inkscape:cx="945"
   inkscape:cy="675"
   inkscape:window-width="1512"
   inkscape:window-height="916"
   inkscape:window-x="0"
   inkscape:window-y="38"
   inkscape:window-maximized="1"
   inkscape:current-layer="svg64" />
<title
   id="title1">Explicit &amp; implicit sizing</title>
\n<g
   id="g1">
  <path
     fill="none"
     stroke="#000000"
     stroke-width="4"
     stroke-linecap="round"
     stroke-linejoin="round"
     d="M-737.313 259.897 L608.687 259.897 "
     id="path1" />
</g>
<g
   id="g2">
  <path
     fill="none"
     stroke="#000000"
     stroke-width="4"
     stroke-linecap="round"
     stroke-linejoin="round"
     d="M609.687 261.897 L609.687 1196.9 "
     id="path2" />
</g>
<g
   id="g3">
  <path
     fill="none"
     stroke="#000000"
     stroke-width="4"
     stroke-linecap="round"
     stroke-linejoin="round"
     d="M-741.313 1197.9 L608.687 1197.9 "
     id="path3" />
</g>
<g
   id="g4">
  <path
     fill="none"
     stroke="#000000"
     stroke-width="4"
     stroke-linecap="round"
     stroke-linejoin="round"
     d="M-739.313 262.897 L-739.313 1194.9 "
     id="path4" />
</g>
<g
   id="g5">
  <path
     fill="none"
     stroke="#000000"
     stroke-width="4"
     stroke-linecap="round"
     stroke-linejoin="round"
     d="M-431.313 262.897 L-431.313 1197.9 "
     id="path5" />
</g>
<g
   id="g6">
  <path
     fill="none"
     stroke="#000000"
     stroke-width="4"
     stroke-linecap="round"
     stroke-linejoin="round"
     d="M-324.313 1296.9 L194.687 1296.9 "
     id="path6" />
</g>
<g
   id="g7">
  <path
     fill="none"
     stroke="#000000"
     stroke-width="4"
     stroke-linecap="round"
     stroke-linejoin="round"
     d="M142.687 1274.9 L196.687 1295.9 "
     id="path7" />
</g>
<g
   id="g8">
  <path
     fill="none"
     stroke="#000000"
     stroke-width="4"
     stroke-linecap="round"
     stroke-linejoin="round"
     d="M143.687 1316.9 L194.687 1298.9 "
     id="path8" />
</g>
<g
   id="g9">
  <path
     fill="none"
     stroke="#000000"
     stroke-width="4"
     stroke-linecap="round"
     stroke-linejoin="round"
     d="M-305.297 1359.07 L-305.035 1359.51 L-305.208 1359.3 L-306.217 1361.35 L-308.805 1369.25 L-308.982 1371.3 L-310.301 1376.12 L-310.781 1380.24 L-312.455 1389.03 L-312.62 1397.69 L-312.272 1397.92 L-312.341 1398.32 L-311.673 1399.55 L-308.174 1400.95 L-302.919 1400.42 L-300.008 1399.79 L-295.675 1399.63 L-291.812 1398.83 L-286.156 1398.84 L-287.613 1399.49 "
     id="path9" />
</g>
<g
   id="g10">
  <path
     fill="none"
     stroke="#000000"
     stroke-width="4"
     stroke-linecap="round"
     stroke-linejoin="round"
     d="M-281.928 1391.34 L-280.048 1391.78 L-276.833 1391.65 L-275.536 1390.92 L-272.051 1389.8 L-269.854 1387.59 L-268.988 1387.31 L-265.735 1379.59 L-266.349 1376.06 L-267.316 1375.75 L-268.52 1374.77 L-270.617 1375.07 L-274.054 1376.65 L-276.091 1378.53 L-277.375 1380.84 L-279.33 1382.99 L-282.903 1390.09 L-283.203 1391.66 L-282.981 1394.21 L-281.622 1396.99 L-280.369 1397.78 L-275.862 1399.06 L-270.201 1398.88 L-265.849 1398.22 L-259.164 1398.05 L-257.976 1397.7 L-254.595 1397.78 "
     id="path10" />
</g>
<g
   id="g11">
  <path
     fill="none"
     stroke="#000000"
     stroke-width="4"
     stroke-linecap="round"
     stroke-linejoin="round"
     d="M-249.952 1380.33 L-249.963 1385.3 L-248.127 1392.1 L-245.876 1397.72 L-243.966 1398.73 L-242.171 1397.69 L-240.297 1395.29 L-236.114 1388.26 L-231.947 1382.73 L-230.358 1379.11 "
     id="path11" />
</g>
<g
   id="g12">
  <path
     fill="none"
     stroke="#000000"
     stroke-width="4"
     stroke-linecap="round"
     stroke-linejoin="round"
     d="M-223.227 1390.11 L-223.184 1390.32 L-220.568 1389.65 L-212.785 1387.04 L-209.5 1385.23 L-208.859 1383.75 L-208.837 1382.34 L-210.906 1380.34 L-213.837 1378.81 L-215.06 1378.56 L-216.443 1378.66 L-219.251 1380.23 L-220.661 1381.86 L-226.008 1390.22 L-227.245 1393.32 L-226.103 1396.61 L-222.456 1398.05 L-219.648 1397.87 L-213.055 1396.44 L-210.978 1395.47 L-207.291 1394.75 L-202.3 1392.99 "
     id="path12" />
</g>
<g
   id="g13">
  <path
     fill="none"
     stroke="#000000"
     stroke-width="4"
     stroke-linecap="round"
     stroke-linejoin="round"
     d="M-181.378 1357 L-183.013 1359.52 L-185.253 1365.34 L-187.398 1372.59 L-193.05 1389.02 L-194.714 1397.74 L-194.45 1403.06 L-194.155 1403.74 L-193.62 1402.86 "
     id="path13" />
</g>
<g
   id="g14">
  <path
     fill="none"
     stroke="#000000"
     stroke-width="4"
     stroke-linecap="round"
     stroke-linejoin="round"
     d="M-120.407 1380.74 L-122.917 1380.07 L-124.615 1380.23 L-128.293 1382.39 L-131.89 1387.22 L-132.225 1388.63 L-132.061 1391.25 L-131.078 1392.96 L-130.116 1393.84 L-125.591 1395.29 L-119.25 1393.79 L-117.872 1393.18 L-114.701 1391.37 L-112.357 1389.36 L-111.448 1386.69 L-111.531 1385.41 L-113.56 1382.95 L-114.986 1382.07 L-117.49 1381.26 L-122.504 1381.48 L-127.716 1382.47 L-129.324 1383.59 L-129.224 1384.47 L-128.631 1384.87 "
     id="path14" />
</g>
<g
   id="g15">
  <path
     fill="none"
     stroke="#000000"
     stroke-width="4"
     stroke-linecap="round"
     stroke-linejoin="round"
     d="M-83.377 1367.54 L-88.1074 1364.4 L-89.8689 1364.51 L-90.9812 1365.22 L-94.5969 1368.58 L-97.0961 1373.69 L-98.7078 1379.12 L-99.0023 1381.68 L-98.7999 1385.63 L-97.0425 1394.41 L-95.0521 1399.9 L-93.8127 1405.7 L-92.5273 1409.17 L-92.6915 1410.38 L-92.3984 1411.44 L-94.4452 1411.71 L-95.1211 1411.12 "
     id="path15" />
</g>
<g
   id="g16">
  <path
     fill="none"
     stroke="#000000"
     stroke-width="4"
     stroke-linecap="round"
     stroke-linejoin="round"
     d="M-115.486 1400.17 L-113.595 1398.87 L-110.048 1397.15 L-106.792 1396.53 L-102.39 1395.14 L-94.0691 1395 "
     id="path16" />
</g>
<g
   id="g17">
  <path
     fill="none"
     stroke="#000000"
     stroke-width="4"
     stroke-linecap="round"
     stroke-linejoin="round"
     d="M-32.0089 1368.2 L-31.0939 1373.04 L-31.3057 1381.53 L-31.6406 1383.56 L-31.5375 1388.69 L-30.9053 1393.37 L-29.7329 1395.98 "
     id="path17" />
</g>
<g
   id="g18">
  <path
     fill="none"
     stroke="#000000"
     stroke-width="4"
     stroke-linecap="round"
     stroke-linejoin="round"
     d="M-37.464 1366.43 L-36.5282 1364.5 L-34.2551 1362.85 L-30.0234 1362.87 L-26.6027 1363.89 L-21.7102 1367.34 L-20.7745 1368.4 L-19.5013 1370.69 L-18.1924 1377.21 L-18.256 1379.02 L-19.7992 1385.35 L-22.6819 1392.52 L-25.5015 1397.81 L-29.2732 1401.99 L-30.5295 1402.7 L-33.5245 1403.5 L-35.6007 1404.72 L-38.575 1404.21 L-39.1036 1402.01 L-38.3103 1400.97 "
     id="path18" />
</g>
<g
   id="g19">
  <path
     fill="none"
     stroke="#000000"
     stroke-width="4"
     stroke-linecap="round"
     stroke-linejoin="round"
     d="M-14.4104 1396.67 L-11.1355 1395.83 L-5.36035 1393.71 L-2.59094 1392.11 L-1.43494 1389.61 L-1.54663 1388.91 L-2.54688 1387.41 L-5.28857 1386.47 L-8.06604 1386.66 L-12.0946 1388.07 L-14.8013 1389.98 L-16.902 1392.29 L-17.9816 1393.57 L-20.5311 1397.91 L-20.5177 1401.35 L-19.5627 1403.26 L-14.8304 1404.87 L-9.10522 1404.67 L-3.28601 1403.72 L10.5033 1398.35 L11.5391 1398.21 "
     id="path19" />
</g>
<g
   id="g20">
  <path
     fill="none"
     stroke="#000000"
     stroke-width="4"
     stroke-linecap="round"
     stroke-linejoin="round"
     d="M17.8619 1359.57 L18.2379 1361.67 L18.1497 1376.75 L17.1569 1383.83 L17.042 1393.92 L16.6583 1395.94 L16.7397 1404.21 "
     id="path20" />
</g>
<g
   id="g21">
  <path
     fill="none"
     stroke="#000000"
     stroke-width="4"
     stroke-linecap="round"
     stroke-linejoin="round"
     d="M5.80444 1376 L10.6356 1376.01 L13.9088 1375.01 L16.7612 1374.82 L19.0859 1373.84 L22.3496 1373.72 "
     id="path21" />
</g>
<g
   id="g22">
  <path
     fill="none"
     stroke="#000000"
     stroke-width="4"
     stroke-linecap="round"
     stroke-linejoin="round"
     d="M43.91 1392.35 L44.6619 1389.2 L45.3391 1388.07 L45.1718 1385.16 L44.2515 1383.35 L40.8138 1381.25 L38.2854 1381.4 L35.1914 1383.13 L32.6539 1386.65 L31.2678 1390.93 L31.38 1398.33 L32.0426 1399.91 L33.3793 1400.49 L34.6292 1400.55 L36.5095 1399.43 L41.796 1394 L42.6013 1391.98 L42.9667 1391.81 L43.806 1390.21 L43.624 1390.42 L45.191 1393.16 L46.3579 1396.2 L49.9637 1400.07 L50.5319 1401.95 L52.0801 1403.37 L52.3906 1403.27 L54.0083 1404.29 L54.3784 1404.24 "
     id="path22" />
</g>
<g
   id="g23">
  <path
     fill="none"
     stroke="#000000"
     stroke-width="4"
     stroke-linecap="round"
     stroke-linejoin="round"
     d="M61.7958 1384.35 L62.0703 1394.39 L62.5791 1397.47 L62.6264 1402.24 L62.9919 1402.99 "
     id="path23" />
</g>
<g
   id="g24">
  <path
     fill="none"
     stroke="#000000"
     stroke-width="4"
     stroke-linecap="round"
     stroke-linejoin="round"
     d="M59.3934 1366.37 L59.4006 1366.47 "
     id="path24" />
</g>
<g
   id="g25">
  <path
     fill="none"
     stroke="#000000"
     stroke-width="4"
     stroke-linecap="round"
     stroke-linejoin="round"
     d="M75.2757 1358.42 L75.5954 1358.74 L75.3831 1358.6 L75.261 1358.91 L74.05 1363.24 L73.4734 1368.67 L72.5543 1372.26 L71.6788 1380.82 L71.7913 1384.23 L71.1336 1390.04 L71.2135 1393.6 L70.7163 1396.26 L70.8182 1403.36 L71.1395 1404.96 L71.5958 1405.85 L72.7786 1404.65 "
     id="path25" />
</g>
<g
   id="g26">
  <path
     fill="none"
     stroke="#000000"
     stroke-width="4"
     stroke-linecap="round"
     stroke-linejoin="round"
     d="M-652.01 527.118 L-651.933 527.707 L-651.979 527.396 L-655.311 525.657 L-660.554 527.029 L-664.405 528.7 L-669.967 532.593 L-672.529 534.895 L-676.195 539.428 L-679.168 544.565 L-681.638 552.179 L-681.86 553.549 L-681.617 556.273 L-680.906 558.441 L-679.371 561.371 L-675.47 564.268 L-671.364 565.107 L-668.243 564.994 L-662.72 563.234 L-661.098 561.669 L-659.289 560.993 L-659.504 561.036 L-659.294 560.112 L-658.599 558.542 L-658.903 557.593 L-659.946 557.379 L-660.795 556.579 L-662.632 555.616 L-664.482 555.782 L-662.532 556.478 L-659.331 556.281 L-650.849 554.144 L-647.078 552.765 "
     id="path26" />
</g>
<g
   id="g27">
  <path
     fill="none"
     stroke="#000000"
     stroke-width="4"
     stroke-linecap="round"
     stroke-linejoin="round"
     d="M-625.349 523.529 L-629.635 537.205 L-633.991 555.065 L-634.539 560.016 L-634.5 565.253 L-634.159 565.66 "
     id="path27" />
</g>
<g
   id="g28">
  <path
     fill="none"
     stroke="#000000"
     stroke-width="4"
     stroke-linecap="round"
     stroke-linejoin="round"
     d="M-607.891 544.981 L-607.885 544.776 L-611.563 544.886 L-614.522 546.202 L-615.864 547.175 L-618.976 552.547 L-618.792 555.154 L-617.98 557.326 L-616.729 559.072 L-615.326 560.01 L-611.506 560.564 L-608.583 559.584 L-604.915 557.739 L-602.14 555.62 L-599.388 552.122 L-598.511 549.071 L-599.178 547.379 L-600.76 545.773 L-603.005 544.304 L-605.214 543.88 L-609.628 544.063 L-615.168 545.465 L-617.252 546.459 L-618.416 547.795 "
     id="path28" />
</g>
<g
   id="g29">
  <path
     fill="none"
     stroke="#000000"
     stroke-width="4"
     stroke-linecap="round"
     stroke-linejoin="round"
     d="M-580.57 519.873 L-584.97 526.296 L-587.115 531.784 L-588.686 537.902 L-589.576 540.21 L-589.991 542.735 L-589.694 549.27 L-588.685 550.901 L-586.039 551.849 L-584.97 551.718 L-578.613 549.226 L-577.768 548.575 L-574.386 547.504 L-571.045 547.633 L-569.757 550.156 L-568.883 552.868 L-568.962 553.715 L-570.454 557.62 L-571.618 559.778 L-573.68 561.793 L-578.488 563.712 L-580.148 563.55 L-582.461 562.5 L-586.341 559.788 L-589.579 556.323 L-589.93 555.044 "
     id="path29" />
</g>
<g
   id="g30">
  <path
     fill="none"
     stroke="#000000"
     stroke-width="4"
     stroke-linecap="round"
     stroke-linejoin="round"
     d="M-545.802 548.464 L-547.758 545.245 L-549.028 544.175 L-550.415 543.534 L-554.175 544.501 L-556.514 545.961 L-559.846 549.592 L-562.21 554.597 L-564.278 560.821 L-564.037 563.357 L-563.708 563.911 L-562.077 564.146 L-557.15 561.491 L-552.536 557.717 L-550.878 555.91 L-547.843 553.825 L-545.957 552.007 L-546.104 552.669 L-545.417 554.481 L-545.533 558.327 L-543.459 561.52 L-541.956 562.08 L-540.701 561.928 L-539.023 561.197 L-535.78 558.493 "
     id="path30" />
</g>
<g
   id="g31">
  <path
     fill="none"
     stroke="#000000"
     stroke-width="4"
     stroke-linecap="round"
     stroke-linejoin="round"
     d="M-521.426 513.639 L-523.676 535.719 L-523.547 555.492 L-521.228 564.087 L-519.387 564.627 "
     id="path31" />
</g>
<g
   id="g32">
  <path
     fill="none"
     stroke="#000000"
     stroke-width="4"
     stroke-linecap="round"
     stroke-linejoin="round"
     d="M-118.61 263.832 L-118.61 1196.83 "
     id="path32" />
</g>
<g
   id="g33">
  <path
     fill="none"
     stroke="#000000"
     stroke-width="4"
     stroke-linecap="round"
     stroke-linejoin="round"
     d="M-372.738 570.507 L-368.458 562.916 L-364.555 553.823 L-361.584 548.419 L-360.82 546.472 L-355.126 536.417 L-350.534 527.416 L-350.194 528.364 L-350.188 530.033 L-352.248 542.333 L-353.011 550.539 L-352.837 557.932 L-352.381 562.531 L-351.317 566.292 L-351.046 566.731 L-349.914 567.113 L-347.353 565.381 L-345.667 563.129 L-344.026 559.639 L-340.032 552.655 L-332.897 541.245 L-325.184 525.558 L-323.575 523.099 L-321.695 521.022 L-320.938 520.78 L-320.126 520.997 "
     id="path33" />
</g>
<g
   id="g34">
  <path
     fill="none"
     stroke="#000000"
     stroke-width="4"
     stroke-linecap="round"
     stroke-linejoin="round"
     d="M-307.954 550.247 L-308.988 546.562 L-311.539 544.365 L-313.453 544.494 L-316.722 545.881 L-320.073 548.702 L-322.515 551.72 L-325.522 558.308 L-325.961 560.621 L-325.803 562.602 L-324.09 562.844 L-321.468 560.887 L-314.024 553.477 L-312.238 551.429 L-311.827 550.461 L-311.055 552.871 L-311.242 556.206 L-309.629 560.246 L-308.684 561.091 L-304.078 562.844 L-301.915 562.658 "
     id="path34" />
</g>
<g
   id="g35">
  <path
     fill="none"
     stroke="#000000"
     stroke-width="4"
     stroke-linecap="round"
     stroke-linejoin="round"
     d="M-295.3 545.949 L-294.968 553.45 L-293.042 561.475 L-292.051 563.716 L-291.287 563.935 L-290.211 563.801 L-288.788 562.933 L-286.849 560.21 L-285.778 557.682 L-284.181 551.849 L-282.768 548.841 L-282.944 547.193 L-282.397 547.204 L-281.918 546.756 "
     id="path35" />
</g>
<g
   id="g36">
  <path
     fill="none"
     stroke="#000000"
     stroke-width="4"
     stroke-linecap="round"
     stroke-linejoin="round"
     d="M-272.316 546.046 L-272.337 556.228 L-271.817 557.192 "
     id="path36" />
</g>
<g
   id="g37">
  <path
     fill="none"
     stroke="#000000"
     stroke-width="4"
     stroke-linecap="round"
     stroke-linejoin="round"
     d="M-273.481 532.599 L-273.464 532.758 "
     id="path37" />
</g>
<g
   id="g38">
  <path
     fill="none"
     stroke="#000000"
     stroke-width="4"
     stroke-linecap="round"
     stroke-linejoin="round"
     d="M-252.064 547.261 L-256.718 543.458 L-257.651 543.247 L-260.375 543.661 L-263.269 545.248 L-264.928 547.351 L-267.903 553.554 L-267.674 556.237 L-265.644 556.64 L-258.839 551.988 L-257.326 550.24 L-256.739 548.955 L-255.425 549.77 L-252.623 555.602 L-251.133 561.187 L-249.25 578.755 L-249.325 581.545 L-250.157 586.556 L-252.5 594.209 L-255.604 598.58 L-257.987 600.531 L-260.235 601.457 L-263.02 602.042 L-264.151 601.986 L-266.971 600.469 L-268.666 599.006 L-273.484 592.926 L-275.396 588.406 L-276.865 581.288 L-276.698 578.882 L-275.778 574.623 L-274.86 572.585 L-273.006 570.274 L-271.038 568.577 L-261.607 564.301 L-259.216 563.666 "
     id="path38" />
</g>
<g
   id="g39">
  <path
     fill="none"
     stroke="#000000"
     stroke-width="4"
     stroke-linecap="round"
     stroke-linejoin="round"
     d="M-233.331 554.366 L-232.304 550.71 L-232.542 549.002 L-232.711 548.534 L-234.871 548.536 L-236.416 549.56 L-238.117 551.427 L-241.216 556.308 L-241.619 558.055 L-241.449 559.441 L-240.541 559.382 L-237.535 557.275 L-231.937 550.765 L-230.36 549.403 L-229.87 548.114 L-227.138 556.01 L-225.268 557.572 L-221.363 558.758 L-220.108 558.657 L-218.486 558.039 "
     id="path39" />
</g>
<g
   id="g40">
  <path
     fill="none"
     stroke="#000000"
     stroke-width="4"
     stroke-linecap="round"
     stroke-linejoin="round"
     d="M-201.647 513.492 L-202.922 515.458 L-204.15 519.429 L-205.586 532.562 L-205.44 545.159 L-203.902 555.736 L-203.079 558.349 "
     id="path40" />
</g>
<g
   id="g41">
  <path
     fill="none"
     stroke="#000000"
     stroke-width="4"
     stroke-linecap="round"
     stroke-linejoin="round"
     d="M-220.835 544.963 L-218.755 544.635 L-206.702 545.22 L-200.69 544.957 "
     id="path41" />
</g>
<g
   id="g42">
  <path
     fill="none"
     stroke="#000000"
     stroke-width="4"
     stroke-linecap="round"
     stroke-linejoin="round"
     d="M-183.179 543.486 L-186.25 544.168 L-189.093 548.005 L-189.656 550.239 L-189.503 554.009 L-188.39 558.044 L-187.763 558.837 L-185.377 560.394 L-182.384 561.038 L-181.215 560.979 L-178.418 560.013 L-175.265 558.461 L-172.511 556.137 L-170.438 552.833 L-169.596 549.659 L-170.062 548.354 L-172.848 546.519 L-176.681 545.02 L-178.068 544.816 L-180.802 545.092 L-186.771 547.252 L-188.449 548.918 "
     id="path42" />
</g>
<g
   id="g43">
  <path
     fill="none"
     stroke="#000000"
     stroke-width="4"
     stroke-linecap="round"
     stroke-linejoin="round"
     d="M-198.23 543.675 L-197.27 545.885 L-195.816 550.924 L-196.067 559.916 "
     id="path43" />
</g>
<g
   id="g44">
  <path
     fill="none"
     stroke="#000000"
     stroke-width="4"
     stroke-linecap="round"
     stroke-linejoin="round"
     d="M-195.52 527.595 L-195.516 527.765 "
     id="path44" />
</g>
<g
   id="g45">
  <path
     fill="none"
     stroke="#000000"
     stroke-width="4"
     stroke-linecap="round"
     stroke-linejoin="round"
     d="M-166.038 545.787 L-166.088 560.962 L-159.849 551.725 L-156.216 549.296 L-155.161 547.601 L-153.713 547.383 L-153.295 547.734 L-151.448 551.853 L-151.587 559.262 L-151.943 560.11 L-151.871 562.303 L-152.506 565.336 L-152.714 571.948 "
     id="path45" />
</g>
<g
   id="g46">
  <path
     fill="none"
     stroke="#000000"
     stroke-width="4"
     stroke-linecap="round"
     stroke-linejoin="round"
     d="M297.566 261.664 L297.67 262.129 "
     id="path46" />
</g>
<g
   id="g47">
  <path
     fill="none"
     stroke="#000000"
     stroke-width="4"
     stroke-linecap="round"
     stroke-linejoin="round"
     d="M298.534 261.462 L298.534 1198.46 "
     id="path47" />
</g>
<g
   id="g48">
  <path
     fill="none"
     stroke="#000000"
     stroke-width="4"
     stroke-linecap="round"
     stroke-linejoin="round"
     d="M10.7081 534.342 L11.1373 532.525 L10.9972 530.689 L9.20953 529.175 L4.41986 530.288 L2.96631 530.929 L-5.94568 536.191 L-10.33 540.15 L-12.8203 543.453 L-19.8593 550.526 L-21.7784 554.556 L-23.1346 558.843 L-23.1007 561.211 L-22.1829 564.108 L-21.5724 564.923 L-17.5217 567.416 L-11.2194 569.319 L-7.17804 570.334 L-2.58844 570.93 L7.40369 573.266 L17.5294 571.976 "
     id="path48" />
</g>
<g
   id="g49">
  <path
     fill="none"
     stroke="#000000"
     stroke-width="4"
     stroke-linecap="round"
     stroke-linejoin="round"
     d="M51.0989 549.442 L47.8824 548.26 L45.1338 548.548 L40.2098 549.697 L32.8691 555.593 L30.1453 561.845 L30.4741 564.709 L31.1545 567.032 L32.1134 568.618 L33.9682 569.627 L38.0352 570.454 L39.4641 570.396 L43.2285 569.437 L47.6044 567.581 L52.1088 564.836 L54.9003 561.888 L55.5492 560.681 L56.2421 557.769 L55.2271 555.298 L53.602 553.715 L51.1587 552.018 L44.0088 548.932 L41.9926 548.52 L39.1321 548.698 L36.0735 550.232 L35.5631 551.251 L35.9689 551.898 "
     id="path49" />
</g>
<g
   id="g50">
  <path
     fill="none"
     stroke="#000000"
     stroke-width="4"
     stroke-linecap="round"
     stroke-linejoin="round"
     d="M64.7538 549.157 L63.1796 553.721 L62.8366 555.899 L61.6788 558.601 L60.2513 564.969 L60.4106 567.76 L60.539 567.554 L62.6033 567.729 L78.6842 556.761 L79.1776 556.171 L80.6299 555.644 L81.6221 555.779 L82.7845 558.773 L82.4203 561.388 L82.4883 565.212 L81.9877 568.043 L82.0723 572.032 "
     id="path50" />
</g>
<g
   id="g51">
  <path
     fill="none"
     stroke="#000000"
     stroke-width="4"
     stroke-linecap="round"
     stroke-linejoin="round"
     d="M111.512 530.739 L108.384 538.098 L104.736 549.75 L103.628 555.171 L102.549 558.024 L101.931 561.51 L99.9321 568.908 "
     id="path51" />
</g>
<g
   id="g52">
  <path
     fill="none"
     stroke="#000000"
     stroke-width="4"
     stroke-linecap="round"
     stroke-linejoin="round"
     d="M88.9623 547.543 L100.04 549.647 L115.831 549.803 "
     id="path52" />
</g>
<g
   id="g53">
  <path
     fill="none"
     stroke="#000000"
     stroke-width="4"
     stroke-linecap="round"
     stroke-linejoin="round"
     d="M126.279 557.35 L126.292 557.06 L127.411 557.346 L131.706 557.322 L139.926 555.154 L144.692 551.782 L145.403 549.776 L145.323 549.04 L142.212 548.219 L138.529 548.39 L135.031 549.424 L129.427 551.736 L126.847 553.146 L123.146 556.43 L121.486 558.663 L120.581 559.389 L119.213 561.738 L118.845 563.116 L119.004 564.522 L120.036 565.83 L130.688 567.905 L146.823 567.764 "
     id="path53" />
</g>
<g
   id="g54">
  <path
     fill="none"
     stroke="#000000"
     stroke-width="4"
     stroke-linecap="round"
     stroke-linejoin="round"
     d="M166.992 548.269 L164.64 550.807 L161.792 555.048 L157.984 563.355 L157.307 566.527 L157.435 568.576 L159.035 568.843 L163.453 566.56 L166.458 565.435 L179.499 556.167 L183.707 552.722 L187.831 550.119 L188.929 548.954 L188.726 550.955 L187.932 552.359 L184.72 560.85 L182.903 568.88 L183.031 574.841 L183.563 575.223 "
     id="path54" />
</g>
<g
   id="g55">
  <path
     fill="none"
     stroke="#000000"
     stroke-width="4"
     stroke-linecap="round"
     stroke-linejoin="round"
     d="M212.19 523.466 L211.46 526.058 L210.755 530.837 L206.029 545.742 L203.042 556.726 L201.898 559.682 L201.385 562.624 L201.474 568.825 "
     id="path55" />
</g>
<g
   id="g56">
  <path
     fill="none"
     stroke="#000000"
     stroke-width="4"
     stroke-linecap="round"
     stroke-linejoin="round"
     d="M194.151 538.279 L214.522 538.353 L217.348 537.791 L219.3 537.823 "
     id="path56" />
</g>
<g
   id="g57">
  <path
     fill="none"
     stroke="#000000"
     stroke-width="4"
     stroke-linecap="round"
     stroke-linejoin="round"
     d="M363.153 535.531 L363.388 536.008 L363.233 535.777 L363.008 536.151 L358.572 544.506 L356.719 550.356 L355.451 555.743 L353.146 562.393 L351.797 568.763 L351.905 570.86 L351.885 568.323 L351.52 567.422 L351.611 563.926 L351.257 562.612 L351.339 554.3 L351.513 550.745 L353.016 539.363 L355.403 532.415 L357.25 529.525 L359.761 526.763 L363.908 524.285 L366.052 523.961 L368.588 524.169 L373.545 525.478 L378.025 528.944 L380.869 531.959 L381.835 534.043 L383.534 545.055 L382.678 550.912 L378.839 560.154 L374.355 567.118 L370.875 570.646 L367.513 574.748 L364.995 576.933 L359.085 580.47 L356.036 581.422 L351.942 582.142 L349.079 581.136 L348.153 579.877 L347.352 577.984 L347.753 575.871 "
     id="path57" />
</g>
<g
   id="g58">
  <path
     fill="none"
     stroke="#000000"
     stroke-width="4"
     stroke-linecap="round"
     stroke-linejoin="round"
     d="M392.572 562.988 L394.604 562.331 L399.014 560.16 L400.804 559.895 L410.114 555.423 L412.287 552.625 L413.73 551.485 L414.477 549.203 L414.423 548.616 L413.626 547.43 L412.642 546.744 L411.452 546.454 L409.352 546.629 L404.856 548.194 L401.439 550.549 L397.248 554.129 L395.138 556.578 L392.47 561.225 L390.53 566.237 L390.815 568.996 L392.139 571.099 L393.124 571.682 L399.525 572.924 L401.749 572.821 L415.413 570.047 "
     id="path58" />
</g>
<g
   id="g59">
  <path
     fill="none"
     stroke="#000000"
     stroke-width="4"
     stroke-linecap="round"
     stroke-linejoin="round"
     d="M435.253 530.112 L434.163 532.831 L433.535 538.349 L431.54 545.277 L430.654 550.218 L430.067 556.508 L430.175 567.624 L430.517 569.21 "
     id="path59" />
</g>
<g
   id="g60">
  <path
     fill="none"
     stroke="#000000"
     stroke-width="4"
     stroke-linecap="round"
     stroke-linejoin="round"
     d="M419.73 560.558 L423.584 558.475 L427.839 557.944 L434.663 558.035 "
     id="path60" />
</g>
<g
   id="g61">
  <path
     fill="none"
     stroke="#000000"
     stroke-width="4"
     stroke-linecap="round"
     stroke-linejoin="round"
     d="M459.346 554.605 L459.316 553.278 L458.601 550.594 L455.763 548.265 L453.939 548.512 L452.247 549.248 L449.637 550.987 L447.483 553.837 L445.22 557.64 L442.88 563.937 L442.673 565.197 L442.907 567.37 L443.745 569.213 L445.637 569.654 L446.565 569.425 L449.763 567.645 L454.56 563.946 L460.558 557.239 L462.335 553.299 L464.506 550.615 L465.192 549.095 L464.35 553.214 L464.525 565.719 L465.682 567.96 L469.156 568.823 L470.945 568.715 L474.783 567.538 L482.342 561.743 L484.438 560.558 L485.942 563.952 L485.805 564.929 L486.572 568.618 L487.3 569.936 "
     id="path61" />
</g>
<g
   id="g62">
  <path
     fill="none"
     stroke="#000000"
     stroke-width="4"
     stroke-linecap="round"
     stroke-linejoin="round"
     d="M488.031 538.061 L488.041 538.192 "
     id="path62" />
</g>
<g
   id="g63">
  <path
     fill="none"
     stroke="#000000"
     stroke-width="4"
     stroke-linecap="round"
     stroke-linejoin="round"
     d="M515.091 523.886 L513.78 525.9 L512.026 529.998 L508.463 540.448 L506.654 543.802 L505.069 548.613 L504.154 553.215 L502.712 557.513 L501.721 562.222 L501.883 564.92 L502.419 565.647 L503.723 565.901 "
     id="path63" />
</g>
<g
   id="g64">
  <path
     fill="none"
     stroke="#000000"
     stroke-width="4"
     stroke-linecap="round"
     stroke-linejoin="round"
     d="M534.253 545.905 L532.235 545.263 L529.694 545.397 L526.516 547.062 L523.949 549.503 L521.29 553.795 L520.977 555.118 L521.201 557.285 L522.226 558.856 L528.018 560.629 L530.859 560.628 L532.522 561.161 L533.645 561.142 L536.67 562.626 L537.27 564.587 L535.272 567.461 L533.91 568.759 L529.482 571.762 L524.233 573.913 L517.201 575.075 L516.15 574.997 L512.875 573.887 L512.082 573.264 "
     id="path64" />
</g>
</svg>
