<?xml version="1.0" encoding="UTF-8" standalone="no"?>
<svg
   width="1355"
   height="1155.821"
   viewBox="-936 0 1355 1155.821"
   version="1.2"
   id="svg71"
   sodipodi:docname="wireframe-ex2.svg"
   inkscape:version="1.4 (e7c3feb1, 2024-10-09)"
   xmlns:inkscape="http://www.inkscape.org/namespaces/inkscape"
   xmlns:sodipodi="http://sodipodi.sourceforge.net/DTD/sodipodi-0.dtd"
   xmlns="http://www.w3.org/2000/svg"
   xmlns:svg="http://www.w3.org/2000/svg"
   xmlns:rdf="http://www.w3.org/1999/02/22-rdf-syntax-ns#"
   xmlns:cc="http://creativecommons.org/ns#"><defs
   id="defs71" />
<sodipodi:namedview
   id="namedview71"
   pagecolor="#ffffff"
   bordercolor="#000000"
   borderopacity="0.25"
   inkscape:showpageshadow="2"
   inkscape:pageopacity="0.0"
   inkscape:pagecheckerboard="0"
   inkscape:deskcolor="#d1d1d1"
   inkscape:zoom="0.41902624"
   inkscape:cx="745.77668"
   inkscape:cy="435.53358"
   inkscape:window-width="1512"
   inkscape:window-height="916"
   inkscape:window-x="0"
   inkscape:window-y="38"
   inkscape:window-maximized="1"
   inkscape:current-layer="svg71" />

\n<g
   id="g72"
   transform="translate(-193.466,-257.809)">
  <g
     id="g1">
    <path
       fill="none"
       stroke="#000000"
       stroke-width="4"
       stroke-linecap="round"
       stroke-linejoin="round"
       d="m -736.534,259.809 h 1346"
       id="path1" />
  </g>
  <g
     id="g2">
    <path
       fill="none"
       stroke="#000000"
       stroke-width="4"
       stroke-linecap="round"
       stroke-linejoin="round"
       d="M 610.466,261.809 V 1196.81"
       id="path2" />
  </g>
  <g
     id="g3">
    <path
       fill="none"
       stroke="#000000"
       stroke-width="4"
       stroke-linecap="round"
       stroke-linejoin="round"
       d="m -740.534,1197.81 h 1350"
       id="path3" />
  </g>
  <g
     id="g4">
    <path
       fill="none"
       stroke="#000000"
       stroke-width="4"
       stroke-linecap="round"
       stroke-linejoin="round"
       d="M -738.534,262.809 V 1194.81"
       id="path4" />
  </g>
  <g
     id="g5">
    <path
       fill="none"
       stroke="#000000"
       stroke-width="4"
       stroke-linecap="round"
       stroke-linejoin="round"
       d="M -430.534,262.809 V 1197.81"
       id="path5" />
  </g>
  <g
     id="g6">
    <path
       fill="none"
       stroke="#000000"
       stroke-width="4"
       stroke-linecap="round"
       stroke-linejoin="round"
       d="m -323.534,1296.81 h 519"
       id="path6" />
  </g>
  <g
     id="g7">
    <path
       fill="none"
       stroke="#000000"
       stroke-width="4"
       stroke-linecap="round"
       stroke-linejoin="round"
       d="m 143.466,1274.81 54,21"
       id="path7" />
  </g>
  <g
     id="g8">
    <path
       fill="none"
       stroke="#000000"
       stroke-width="4"
       stroke-linecap="round"
       stroke-linejoin="round"
       d="m 144.466,1316.81 51,-18"
       id="path8" />
  </g>
  <g
     id="g9">
    <path
       fill="none"
       stroke="#000000"
       stroke-width="4"
       stroke-linecap="round"
       stroke-linejoin="round"
       d="m -304.517,1358.98 0.262,0.44 -0.174,-0.21 -1.008,2.06 -2.589,7.9 -0.177,2.05 -1.319,4.82 -0.479,4.11 -1.675,8.79 -0.165,8.66 0.348,0.23 -0.069,0.4 0.668,1.23 3.5,1.4 5.254,-0.53 2.911,-0.63 4.334,-0.15 3.863,-0.8 h 5.655 l -1.456,0.65"
       id="path9" />
  </g>
  <g
     id="g10">
    <path
       fill="none"
       stroke="#000000"
       stroke-width="4"
       stroke-linecap="round"
       stroke-linejoin="round"
       d="m -281.149,1391.25 1.881,0.44 3.215,-0.13 1.297,-0.73 3.484,-1.12 2.198,-2.21 0.866,-0.28 3.252,-7.72 -0.614,-3.53 -0.967,-0.31 -1.203,-0.98 -2.098,0.3 -3.436,1.58 -2.037,1.89 -1.284,2.3 -1.956,2.15 -3.572,7.1 -0.3,1.57 0.221,2.55 1.36,2.78 1.252,0.79 4.507,1.29 5.662,-0.18 4.351,-0.67 6.685,-0.17 1.188,-0.35 3.381,0.08"
       id="path10" />
  </g>
  <g
     id="g11">
    <path
       fill="none"
       stroke="#000000"
       stroke-width="4"
       stroke-linecap="round"
       stroke-linejoin="round"
       d="m -249.173,1380.24 -0.01,4.97 1.835,6.8 2.252,5.63 1.91,1 1.795,-1.04 1.873,-2.39 4.184,-7.04 4.166,-5.53 1.59,-3.62"
       id="path11" />
  </g>
  <g
     id="g12">
    <path
       fill="none"
       stroke="#000000"
       stroke-width="4"
       stroke-linecap="round"
       stroke-linejoin="round"
       d="m -222.447,1390.03 0.043,0.2 2.616,-0.67 7.783,-2.61 3.285,-1.81 0.641,-1.47 0.021,-1.42 -2.068,-2 -2.931,-1.53 -1.223,-0.25 -1.384,0.1 -2.807,1.57 -1.411,1.63 -5.346,8.36 -1.238,3.1 1.143,3.29 3.647,1.45 2.808,-0.18 6.593,-1.44 2.076,-0.97 3.687,-0.72 4.992,-1.76"
       id="path12" />
  </g>
  <g
     id="g13">
    <path
       fill="none"
       stroke="#000000"
       stroke-width="4"
       stroke-linecap="round"
       stroke-linejoin="round"
       d="m -180.599,1356.91 -1.635,2.52 -2.24,5.82 -2.145,7.26 -5.652,16.43 -1.663,8.72 0.263,5.31 0.295,0.68 0.535,-0.87"
       id="path13" />
  </g>
  <g
     id="g14">
    <path
       fill="none"
       stroke="#000000"
       stroke-width="4"
       stroke-linecap="round"
       stroke-linejoin="round"
       d="m -119.627,1380.66 -2.51,-0.68 -1.699,0.16 -3.678,2.16 -3.596,4.83 -0.336,1.41 0.164,2.63 0.984,1.7 0.961,0.89 4.526,1.44 6.34,-1.49 1.379,-0.62 3.171,-1.81 2.344,-2.01 0.908,-2.67 -0.083,-1.28 -2.029,-2.46 -1.426,-0.88 -2.504,-0.8 -5.013,0.22 -5.212,0.98 -1.608,1.12 0.1,0.88 0.593,0.4"
       id="path14" />
  </g>
  <g
     id="g15">
    <path
       fill="none"
       stroke="#000000"
       stroke-width="4"
       stroke-linecap="round"
       stroke-linejoin="round"
       d="m -82.5974,1367.45 -4.7305,-3.14 -1.7615,0.11 -1.1123,0.71 -3.6157,3.36 -2.4991,5.11 -1.6117,5.44 -0.2946,2.56 0.2024,3.95 1.7575,8.78 1.9903,5.48 1.2394,5.8 1.2854,3.48 -0.1642,1.2 0.2931,1.06 -2.0467,0.28 -0.676,-0.6"
       id="path15" />
  </g>
  <g
     id="g16">
    <path
       fill="none"
       stroke="#000000"
       stroke-width="4"
       stroke-linecap="round"
       stroke-linejoin="round"
       d="m -114.706,1400.08 1.89,-1.3 3.547,-1.72 3.257,-0.62 4.402,-1.39 8.3204,-0.13"
       id="path16" />
  </g>
  <g
     id="g17">
    <path
       fill="none"
       stroke="#000000"
       stroke-width="4"
       stroke-linecap="round"
       stroke-linejoin="round"
       d="m -31.2294,1368.12 0.9151,4.83 -0.2118,8.49 -0.335,2.04 0.1032,5.12 0.6322,4.68 1.1723,2.61"
       id="path17" />
  </g>
  <g
     id="g18">
    <path
       fill="none"
       stroke="#000000"
       stroke-width="4"
       stroke-linecap="round"
       stroke-linejoin="round"
       d="m -36.6844,1366.34 0.9357,-1.92 2.2731,-1.65 4.2317,0.02 3.4208,1.01 4.8924,3.45 0.9357,1.06 1.2732,2.29 1.309,6.53 -0.0636,1.81 -1.5433,6.32 -2.8826,7.17 -2.8196,5.29 -3.7718,4.18 -1.2563,0.71 -2.995,0.8 -2.0762,1.22 -2.9742,-0.51 -0.5287,-2.2 0.7933,-1.04"
       id="path18" />
  </g>
  <g
     id="g19">
    <path
       fill="none"
       stroke="#000000"
       stroke-width="4"
       stroke-linecap="round"
       stroke-linejoin="round"
       d="m -13.6309,1396.59 3.2749,-0.85 5.77519,-2.12 2.76941,-1.6 1.156004,-2.5 -0.111694,-0.7 -1.00024,-1.5 -2.7417,-0.94 -2.77747,0.19 -4.0286,1.41 -2.7066,1.91 -2.1007,2.32 -1.0796,1.28 -2.5496,4.33 0.0134,3.44 0.955,1.92 4.7323,1.6 5.72522,-0.19 5.81921,-0.96 13.78927,-5.36 1.0358,-0.15"
       id="path19" />
  </g>
  <g
     id="g20">
    <path
       fill="none"
       stroke="#000000"
       stroke-width="4"
       stroke-linecap="round"
       stroke-linejoin="round"
       d="m 18.6415,1359.49 0.376,2.09 -0.0883,15.08 -0.9928,7.08 -0.1149,10.09 -0.3836,2.02 0.0814,8.27"
       id="path20" />
  </g>
  <g
     id="g21">
    <path
       fill="none"
       stroke="#000000"
       stroke-width="4"
       stroke-linecap="round"
       stroke-linejoin="round"
       d="m 6.58398,1375.91 4.83122,0.01 3.2732,-1 2.8524,-0.19 2.3247,-0.98 3.2637,-0.12"
       id="path21" />
  </g>
  <g
     id="g22">
    <path
       fill="none"
       stroke="#000000"
       stroke-width="4"
       stroke-linecap="round"
       stroke-linejoin="round"
       d="m 44.6896,1392.26 0.7518,-3.15 0.6773,-1.13 -0.1674,-2.91 -0.9203,-1.81 -3.4376,-2.1 -2.5285,0.16 -3.094,1.72 -2.5374,3.52 -1.3861,4.28 0.1121,7.41 0.6626,1.57 1.3367,0.58 1.2499,0.06 1.8804,-1.11 5.2865,-5.43 0.8053,-2.03 0.3653,-0.17 0.8394,-1.6 -0.182,0.21 1.567,2.75 1.1669,3.03 3.6058,3.87 0.5681,1.89 1.5482,1.41 0.3106,-0.1 1.6176,1.03 0.3702,-0.06"
       id="path22" />
  </g>
  <g
     id="g23">
    <path
       fill="none"
       stroke="#000000"
       stroke-width="4"
       stroke-linecap="round"
       stroke-linejoin="round"
       d="m 62.5754,1384.26 0.2745,10.04 0.5087,3.08 0.0473,4.78 0.3655,0.74"
       id="path23" />
  </g>
  <g
     id="g24">
    <path
       fill="none"
       stroke="#000000"
       stroke-width="4"
       stroke-linecap="round"
       stroke-linejoin="round"
       d="m 60.173,1366.28 0.0071,0.1"
       id="path24" />
  </g>
  <g
     id="g25">
    <path
       fill="none"
       stroke="#000000"
       stroke-width="4"
       stroke-linecap="round"
       stroke-linejoin="round"
       d="m 76.0552,1358.33 0.3197,0.32 -0.2123,-0.13 -0.1221,0.3 -1.2109,4.33 -0.5766,5.43 -0.9191,3.59 -0.8756,8.56 0.1126,3.41 -0.6578,5.82 0.0799,3.55 -0.4972,2.66 0.102,7.1 0.3212,1.6 0.4564,0.9 1.1827,-1.21"
       id="path25" />
  </g>
  <g
     id="g26">
    <path
       fill="none"
       stroke="#000000"
       stroke-width="4"
       stroke-linecap="round"
       stroke-linejoin="round"
       d="m -651.231,527.031 0.077,0.589 -0.045,-0.311 -3.333,-1.74 -5.243,1.372 -3.851,1.672 -5.562,3.893 -2.561,2.301 -3.667,4.533 -2.973,5.138 -2.47,7.614 -0.222,1.369 0.243,2.724 0.712,2.169 1.534,2.929 3.902,2.897 4.106,0.839 3.121,-0.112 5.522,-1.76 1.623,-1.565 1.809,-0.676 -0.215,0.042 0.209,-0.924 0.696,-1.569 -0.304,-0.95 -1.044,-0.214 -0.849,-0.799 -1.836,-0.964 -1.85,0.166 1.949,0.696 3.202,-0.197 8.481,-2.137 3.772,-1.378"
       id="path26" />
  </g>
  <g
     id="g27">
    <path
       fill="none"
       stroke="#000000"
       stroke-width="4"
       stroke-linecap="round"
       stroke-linejoin="round"
       d="m -624.57,523.442 -4.286,13.676 -4.356,17.859 -0.548,4.952 0.04,5.236 0.341,0.408"
       id="path27" />
  </g>
  <g
     id="g28">
    <path
       fill="none"
       stroke="#000000"
       stroke-width="4"
       stroke-linecap="round"
       stroke-linejoin="round"
       d="m -607.111,544.894 0.006,-0.206 -3.679,0.111 -2.958,1.315 -1.343,0.973 -3.111,5.372 0.184,2.607 0.812,2.172 1.25,1.747 1.403,0.937 3.82,0.555 2.923,-0.98 3.668,-1.846 2.775,-2.118 2.752,-3.499 0.878,-3.051 -0.668,-1.691 -1.582,-1.607 -2.244,-1.469 -2.21,-0.424 -4.413,0.184 -5.541,1.401 -2.083,0.995 -1.165,1.335"
       id="path28" />
  </g>
  <g
     id="g29">
    <path
       fill="none"
       stroke="#000000"
       stroke-width="4"
       stroke-linecap="round"
       stroke-linejoin="round"
       d="m -579.791,519.786 -4.399,6.423 -2.145,5.488 -1.572,6.118 -0.889,2.308 -0.416,2.524 0.297,6.536 1.009,1.631 2.647,0.948 1.068,-0.131 6.357,-2.492 0.845,-0.652 3.383,-1.071 3.34,0.129 1.289,2.524 0.874,2.712 -0.079,0.846 -1.493,3.905 -1.164,2.158 -2.062,2.016 -4.807,1.919 -1.66,-0.163 -2.313,-1.05 -3.881,-2.712 -3.238,-3.465 -0.35,-1.279"
       id="path29" />
  </g>
  <g
     id="g30">
    <path
       fill="none"
       stroke="#000000"
       stroke-width="4"
       stroke-linecap="round"
       stroke-linejoin="round"
       d="m -545.022,548.376 -1.957,-3.219 -1.269,-1.069 -1.388,-0.642 -3.759,0.967 -2.34,1.46 -3.332,3.631 -2.364,5.005 -2.067,6.225 0.241,2.536 0.328,0.553 1.632,0.236 4.926,-2.655 4.614,-3.774 1.658,-1.807 3.036,-2.086 1.886,-1.818 -0.148,0.662 0.688,1.813 -0.116,3.845 2.073,3.193 1.503,0.56 1.256,-0.152 1.677,-0.73 3.244,-2.705"
       id="path30" />
  </g>
  <g
     id="g31">
    <path
       fill="none"
       stroke="#000000"
       stroke-width="4"
       stroke-linecap="round"
       stroke-linejoin="round"
       d="m -520.646,513.551 -2.25,22.08 0.128,19.774 2.319,8.594 1.841,0.54"
       id="path31" />
  </g>
  <g
     id="g32">
    <path
       fill="none"
       stroke="#000000"
       stroke-width="4"
       stroke-linecap="round"
       stroke-linejoin="round"
       d="m 274.095,533.965 0.429,-1.817 -0.14,-1.836 -1.787,-1.515 -4.79,1.113 -1.454,0.642 -8.912,5.262 -4.384,3.959 -2.49,3.303 -7.039,7.072 -1.919,4.03 -1.356,4.288 0.033,2.368 0.918,2.896 0.611,0.816 4.05,2.492 6.303,1.903 4.041,1.016 4.59,0.596 9.992,2.335 10.126,-1.289"
       id="path32" />
  </g>
  <g
     id="g33">
    <path
       fill="none"
       stroke="#000000"
       stroke-width="4"
       stroke-linecap="round"
       stroke-linejoin="round"
       d="m 314.486,549.065 -3.216,-1.183 -2.749,0.289 -4.924,1.149 -7.341,5.896 -2.724,6.251 0.329,2.864 0.681,2.323 0.959,1.587 1.854,1.009 4.067,0.827 1.429,-0.058 3.765,-0.96 4.376,-1.855 4.504,-2.746 2.791,-2.948 0.649,-1.207 0.693,-2.911 -1.015,-2.471 -1.625,-1.583 -2.443,-1.697 -7.15,-3.086 -2.016,-0.412 -2.861,0.178 -3.058,1.534 -0.511,1.019 0.406,0.646"
       id="path33" />
  </g>
  <g
     id="g34">
    <path
       fill="none"
       stroke="#000000"
       stroke-width="4"
       stroke-linecap="round"
       stroke-linejoin="round"
       d="m 328.141,548.779 -1.574,4.564 -0.343,2.179 -1.158,2.702 -1.428,6.367 0.16,2.791 0.128,-0.205 2.064,0.174 16.081,-10.968 0.494,-0.589 1.452,-0.527 0.992,0.135 1.163,2.994 -0.365,2.615 0.068,3.823 -0.5,2.831 0.084,3.99"
       id="path34" />
  </g>
  <g
     id="g35">
    <path
       fill="none"
       stroke="#000000"
       stroke-width="4"
       stroke-linecap="round"
       stroke-linejoin="round"
       d="m 374.899,530.361 -3.128,7.36 -3.647,11.651 -1.108,5.422 -1.079,2.853 -0.619,3.486 -1.999,7.397"
       id="path35" />
  </g>
  <g
     id="g36">
    <path
       fill="none"
       stroke="#000000"
       stroke-width="4"
       stroke-linecap="round"
       stroke-linejoin="round"
       d="m 352.349,547.166 11.078,2.104 15.792,0.156"
       id="path36" />
  </g>
  <g
     id="g37">
    <path
       fill="none"
       stroke="#000000"
       stroke-width="4"
       stroke-linecap="round"
       stroke-linejoin="round"
       d="m 389.666,556.972 0.013,-0.289 1.119,0.286 4.296,-0.024 8.219,-2.169 4.766,-3.371 0.711,-2.006 -0.08,-0.736 -3.111,-0.822 -3.682,0.172 -3.499,1.033 -5.604,2.313 -2.58,1.41 -3.701,3.284 -1.66,2.232 -0.905,0.727 -1.368,2.349 -0.368,1.378 0.159,1.406 1.032,1.308 10.652,2.075 16.135,-0.141"
       id="path37" />
  </g>
  <g
     id="g38">
    <path
       fill="none"
       stroke="#000000"
       stroke-width="4"
       stroke-linecap="round"
       stroke-linejoin="round"
       d="m 430.379,547.892 -2.352,2.538 -2.848,4.24 -3.808,8.308 -0.677,3.172 0.128,2.048 1.6,0.267 4.418,-2.282 3.005,-1.126 13.041,-9.268 4.208,-3.445 4.124,-2.603 1.098,-1.164 -0.203,2 -0.794,1.404 -3.211,8.491 -1.818,8.03 0.129,5.961 0.531,0.383"
       id="path38" />
  </g>
  <g
     id="g39">
    <path
       fill="none"
       stroke="#000000"
       stroke-width="4"
       stroke-linecap="round"
       stroke-linejoin="round"
       d="m 475.577,523.089 -0.729,2.592 -0.706,4.778 -4.726,14.906 -2.987,10.984 -1.144,2.956 -0.513,2.942 0.089,6.2"
       id="path39" />
  </g>
  <g
     id="g40">
    <path
       fill="none"
       stroke="#000000"
       stroke-width="4"
       stroke-linecap="round"
       stroke-linejoin="round"
       d="m 457.538,537.902 20.371,0.074 2.826,-0.562 1.953,0.031"
       id="path40" />
  </g>
  <g
     id="g41">
    <path
       fill="none"
       stroke="#000000"
       stroke-width="4"
       stroke-linecap="round"
       stroke-linejoin="round"
       d="M -117.83,263.744 V 1196.74"
       id="path41" />
  </g>
  <g
     id="g42">
    <path
       fill="none"
       stroke="#000000"
       stroke-width="4"
       stroke-linecap="round"
       stroke-linejoin="round"
       d="m 189.783,260.562 0.103,0.465"
       id="path42" />
  </g>
  <g
     id="g43">
    <path
       fill="none"
       stroke="#000000"
       stroke-width="4"
       stroke-linecap="round"
       stroke-linejoin="round"
       d="m 190.75,260.36 v 937"
       id="path43" />
  </g>
  <g
     id="g44">
    <path
       fill="none"
       stroke="#000000"
       stroke-width="4"
       stroke-linecap="round"
       stroke-linejoin="round"
       d="m -67.6971,529.734 0.8811,-3.755 0.9099,-2.096 -1.1529,-2.97 -0.9586,-0.865 -0.8822,-0.294 -4.0909,1.096 -1.1232,0.638 -3.8734,3.818 -4.8276,7.12 -1.4659,3.121 -0.5915,3.074 -1.8211,5.314 0.3202,3.43 0.657,2.01 0.9708,1.63 1.663,0.839 4.9496,1.394 3.9194,-0.028 2.2353,0.366 2.5543,1.631 0.75,2.658 -2.1053,2.941 -1.3343,1.297 -4.249,2.987 -6.6923,3.933 -6.9531,2.139 -1.7278,1.05 -0.6715,-0.124"
       id="path44" />
  </g>
  <g
     id="g45">
    <path
       fill="none"
       stroke="#000000"
       stroke-width="4"
       stroke-linecap="round"
       stroke-linejoin="round"
       d="m -60.2549,552.754 -0.2395,-0.3 0.1475,0.256 -1.9779,4.623 -0.5805,3.658 0.1153,4.399 0.7108,1.528 0.0088,0.802 1.8711,0.372 5.586,-5.322 2.0913,-4.161 2.4998,-3.216 0.8475,-1.817 0.7378,2.807 -0.1782,6.005 -0.3309,1.064 0.2204,4.922"
       id="path45" />
  </g>
  <g
     id="g46">
    <path
       fill="none"
       stroke="#000000"
       stroke-width="4"
       stroke-linecap="round"
       stroke-linejoin="round"
       d="m -34.9106,522.337 -2.6138,7.454 -3.0233,12.297 -1.6809,5.466 -0.3063,2.659 0.3221,6.766 1.4905,3.526 2.1902,0.967 1.3712,-0.101 4.6222,-1.93 1.6939,-1.652 1.6875,-1.118 2.0798,-2.259 1.2871,-0.476 1.2002,0.041 0.3657,0.322 1.1366,3.942 -0.1913,2.496 -1.386,3.782 -2.6661,2.467 -4.0083,1.762 -1.7329,-0.17 -1.7517,-0.903 -2.2132,-1.581 -3.7977,-4.014 -0.4288,-0.031 0.2047,0.222"
       id="path46" />
  </g>
  <g
     id="g47">
    <path
       fill="none"
       stroke="#000000"
       stroke-width="4"
       stroke-linecap="round"
       stroke-linejoin="round"
       d="m -16.5747,551.493 0.2255,-4.829 -1.4245,2.997 -0.518,1.833 -0.5219,4.238 0.0856,8.046 1.6135,-0.912 2.4554,-2.679 1.6148,-2.552 3.06969,-3.079 1.23743,-0.721 1.66491,-2.264 1.00989,0.272 1.83167,5.592 -0.17554,3.034 0.3125,3.726"
       id="path47" />
  </g>
  <g
     id="g48">
    <path
       fill="none"
       stroke="#000000"
       stroke-width="4"
       stroke-linecap="round"
       stroke-linejoin="round"
       d="m 8.98865,554.253 0.58557,-2.957 -0.11768,-0.691 -0.87292,-1.133 -1.40369,-0.396 -1.03784,0.139 -2.06689,0.902 -1.94507,1.403 -2.018558,2.932 -2.772952,5.865 -0.54712,2.175 0.15076,2.006 1.29065,0.055 3.8645,-2.955 3.68738,-4.951 1.39661,-2.482 2.25,-2.553 0.6631,-1.506 1.1951,3.238 -0.1706,9.641 0.3852,-0.276"
       id="path48" />
  </g>
  <g
     id="g49">
    <path
       fill="none"
       stroke="#000000"
       stroke-width="4"
       stroke-linecap="round"
       stroke-linejoin="round"
       d="m 17.5938,550.844 0.1938,9.157 0.3112,1.983 1.4937,2.951 1.7156,-1.065 2.1962,-2.391 0.8347,-1.576 3.1566,-4.239 2.0626,-3.749 2.9519,-3.734 0.5353,-1.249 0.0282,0.821 0.5579,1.097 -0.1148,3.083"
       id="path49" />
  </g>
  <g
     id="g50">
    <path
       fill="none"
       stroke="#000000"
       stroke-width="4"
       stroke-linecap="round"
       stroke-linejoin="round"
       d="m 39.7081,551.422 -1.6946,6.874 -0.1325,6.878"
       id="path50" />
  </g>
  <g
     id="g51">
    <path
       fill="none"
       stroke="#000000"
       stroke-width="4"
       stroke-linecap="round"
       stroke-linejoin="round"
       d="m 42.1008,537.19 2e-4,0.097"
       id="path51" />
  </g>
  <g
     id="g52">
    <path
       fill="none"
       stroke="#000000"
       stroke-width="4"
       stroke-linecap="round"
       stroke-linejoin="round"
       d="m 54.4937,552.882 -1.6229,-2.477 -1.6182,-1.488 -1.6914,0.056 -1.6878,0.975 -1.7504,1.941 -2.45,4.997 -0.3083,1.717 0.1645,3.592 0.5251,0.859 1.7609,0.381 1.4372,-0.443 2.5789,-1.991 2.1282,-2.662 3.4909,-8.009 -1.3128,2.619 0.2332,1.387 -0.3333,1.359 0.0348,5.802 0.5144,3.937 0.0728,10.647 -0.5395,4.405 -2.866,12.945 -1.2617,1.812 -2.2557,2.124 -2.8477,0.722 -2.0765,-1.019 -2.3986,-2.02 -2.4878,-3.407 -1.9498,-3.324 -1.1124,-3.444 -0.2171,-1.454 0.1967,-2.557 0.5401,-1.632 1.561,-2.362 4.0942,-2.83 4.6736,-1.72"
       id="path52" />
  </g>
  <g
     id="g53">
    <path
       fill="none"
       stroke="#000000"
       stroke-width="4"
       stroke-linecap="round"
       stroke-linejoin="round"
       d="m 74.6311,550.424 -1.0412,-1.001 -3.8904,-1.71 -1.55,0.397 -3.5437,2.266 -3.1798,4.871 -0.4341,1.751 0.1321,3.333 0.5149,0.568 1.9823,0.721 3.7128,-1.472 4.2124,-3.863 2.1167,-2.738 0.8985,-0.792 0.7718,-0.117 1.2785,3.293 -0.1898,3.368 0.6341,3.088 2.1952,1.104 2.0102,-0.867"
       id="path53" />
  </g>
  <g
     id="g54">
    <path
       fill="none"
       stroke="#000000"
       stroke-width="4"
       stroke-linecap="round"
       stroke-linejoin="round"
       d="m 96.3132,522.458 -0.9056,1.962 -2.0899,6.618 -2.2039,8.132 -1.0114,6.06 -1.8187,13.043 0.17,5.463 0.3257,1.262 0.4777,0.765 0.3962,-0.083"
       id="path54" />
  </g>
  <g
     id="g55">
    <path
       fill="none"
       stroke="#000000"
       stroke-width="4"
       stroke-linecap="round"
       stroke-linejoin="round"
       d="m 82.2169,550.983 1.2247,-0.946 4.2062,-2.044 1.5936,-0.252 3.0739,0.182 4.6952,1.687 2.2898,1.374 1.6357,1.838 1.109,4.069 -0.113,1.255 -1.083,1.717 -2.7802,8.462"
       id="path55" />
  </g>
  <g
     id="g56">
    <path
       fill="none"
       stroke="#000000"
       stroke-width="4"
       stroke-linecap="round"
       stroke-linejoin="round"
       d="m 104.06,537.804 -0.001,-0.095"
       id="path56" />
  </g>
  <g
     id="g57">
    <path
       fill="none"
       stroke="#000000"
       stroke-width="4"
       stroke-linecap="round"
       stroke-linejoin="round"
       d="m 116.031,552.008 -3.382,0.667 -1.827,1.111 -1.352,2.421 -2.302,2.212 -0.532,2.064 0.136,2.179 1.386,3.217 0.969,1.213 4.102,1.321 3.229,-1.051 4.329,-2.42 2.232,-3.611 1.158,-3.945 -1.322,-2.556 -2.699,-2.308 -3.327,-0.69 -2.999,0.142 -3.556,1.554 -1.636,2.97 0.597,2.495"
       id="path57" />
  </g>
  <g
     id="g58">
    <path
       fill="none"
       stroke="#000000"
       stroke-width="4"
       stroke-linecap="round"
       stroke-linejoin="round"
       d="m 134.613,548.26 -1.83,8.041 -0.149,8.281 0.56,1.068 0.793,0.068 2.516,-1.101 3.302,-2.415 2.968,-3.2 2.113,-3.042 2.764,-2.641 0.343,-0.767 0.145,3.112 -0.895,2.426 -0.467,3.56 0.093,1.939 -0.68,1.704 0.107,4.273 1.69,0.341"
       id="path58" />
  </g>
  <g
     id="g59">
    <path
       fill="none"
       stroke="#000000"
       stroke-width="4"
       stroke-linecap="round"
       stroke-linejoin="round"
       d="m -371.958,570.419 4.279,-7.591 3.903,-9.093 2.972,-5.404 0.764,-1.946 5.694,-10.056 4.592,-9.001 0.34,0.948 0.006,1.67 -2.061,12.299 -0.763,8.206 0.175,7.393 0.455,4.599 1.064,3.761 0.272,0.44 1.132,0.382 2.56,-1.733 1.686,-2.252 1.642,-3.489 3.994,-6.985 7.134,-11.41 7.713,-15.686 1.609,-2.46 1.881,-2.077 0.757,-0.242 0.811,0.217"
       id="path59" />
  </g>
  <g
     id="g60">
    <path
       fill="none"
       stroke="#000000"
       stroke-width="4"
       stroke-linecap="round"
       stroke-linejoin="round"
       d="m -307.174,550.16 -1.035,-3.686 -2.55,-2.197 -1.915,0.13 -3.268,1.386 -3.351,2.822 -2.443,3.018 -3.007,6.588 -0.439,2.312 0.159,1.982 1.713,0.241 2.622,-1.957 7.444,-7.41 1.785,-2.048 0.411,-0.967 0.773,2.409 -0.188,3.336 1.614,4.039 0.945,0.845 4.605,1.753 2.164,-0.186"
       id="path60" />
  </g>
  <g
     id="g61">
    <path
       fill="none"
       stroke="#000000"
       stroke-width="4"
       stroke-linecap="round"
       stroke-linejoin="round"
       d="m -294.52,545.861 0.332,7.501 1.926,8.025 0.991,2.241 0.763,0.22 1.077,-0.134 1.423,-0.868 1.939,-2.724 1.07,-2.528 1.597,-5.833 1.413,-3.008 -0.176,-1.647 0.547,0.011 0.479,-0.448"
       id="path61" />
  </g>
  <g
     id="g62">
    <path
       fill="none"
       stroke="#000000"
       stroke-width="4"
       stroke-linecap="round"
       stroke-linejoin="round"
       d="m -271.537,545.958 -0.02,10.183 0.519,0.963"
       id="path62" />
  </g>
  <g
     id="g63">
    <path
       fill="none"
       stroke="#000000"
       stroke-width="4"
       stroke-linecap="round"
       stroke-linejoin="round"
       d="m -272.701,532.512 0.016,0.159"
       id="path63" />
  </g>
  <g
     id="g64">
    <path
       fill="none"
       stroke="#000000"
       stroke-width="4"
       stroke-linecap="round"
       stroke-linejoin="round"
       d="m -251.284,547.174 -4.655,-3.804 -0.932,-0.21 -2.724,0.413 -2.895,1.587 -1.658,2.104 -2.976,6.202 0.229,2.683 2.031,0.404 6.805,-4.652 1.513,-1.749 0.587,-1.285 1.313,0.815 2.803,5.832 1.49,5.586 1.882,17.567 -0.074,2.791 -0.833,5.01 -2.342,7.653 -3.104,4.371 -2.384,1.952 -2.247,0.926 -2.785,0.585 -1.132,-0.056 -2.819,-1.518 -1.695,-1.462 -4.819,-6.081 -1.911,-4.52 -1.47,-7.118 0.168,-2.406 0.92,-4.259 0.918,-2.038 1.854,-2.31 1.967,-1.698 9.432,-4.275 2.391,-0.636"
       id="path64" />
  </g>
  <g
     id="g65">
    <path
       fill="none"
       stroke="#000000"
       stroke-width="4"
       stroke-linecap="round"
       stroke-linejoin="round"
       d="m -232.551,554.278 1.026,-3.656 -0.238,-1.708 -0.169,-0.468 -2.159,0.002 -1.546,1.024 -1.701,1.867 -3.098,4.882 -0.404,1.746 0.17,1.386 0.909,-0.059 3.006,-2.106 5.598,-6.511 1.577,-1.362 0.49,-1.288 2.732,7.895 1.87,1.563 3.905,1.186 1.255,-0.102 1.621,-0.617"
       id="path65" />
  </g>
  <g
     id="g66">
    <path
       fill="none"
       stroke="#000000"
       stroke-width="4"
       stroke-linecap="round"
       stroke-linejoin="round"
       d="m -200.868,513.404 -1.274,1.967 -1.228,3.971 -1.437,13.132 0.147,12.598 1.537,10.576 0.823,2.613"
       id="path66" />
  </g>
  <g
     id="g67">
    <path
       fill="none"
       stroke="#000000"
       stroke-width="4"
       stroke-linecap="round"
       stroke-linejoin="round"
       d="m -220.055,544.875 2.08,-0.328 12.053,0.585 6.012,-0.263"
       id="path67" />
  </g>
  <g
     id="g68">
    <path
       fill="none"
       stroke="#000000"
       stroke-width="4"
       stroke-linecap="round"
       stroke-linejoin="round"
       d="m -182.4,543.398 -3.07,0.683 -2.843,3.837 -0.563,2.233 0.153,3.77 1.113,4.035 0.626,0.793 2.386,1.557 2.993,0.644 1.169,-0.059 2.798,-0.965 3.152,-1.553 2.754,-2.324 2.074,-3.303 0.842,-3.175 -0.466,-1.305 -2.786,-1.835 -3.834,-1.499 -1.387,-0.204 -2.733,0.276 -5.97,2.16 -1.678,1.667"
       id="path68" />
  </g>
  <g
     id="g69">
    <path
       fill="none"
       stroke="#000000"
       stroke-width="4"
       stroke-linecap="round"
       stroke-linejoin="round"
       d="m -197.451,543.587 0.961,2.21 1.454,5.039 -0.251,8.992"
       id="path69" />
  </g>
  <g
     id="g70">
    <path
       fill="none"
       stroke="#000000"
       stroke-width="4"
       stroke-linecap="round"
       stroke-linejoin="round"
       d="m -194.741,527.507 0.005,0.17"
       id="path70" />
  </g>
  <g
     id="g71">
    <path
       fill="none"
       stroke="#000000"
       stroke-width="4"
       stroke-linecap="round"
       stroke-linejoin="round"
       d="m -165.259,545.699 -0.05,15.176 6.24,-9.238 3.632,-2.429 1.056,-1.695 1.448,-0.218 0.418,0.352 1.847,4.118 -0.14,7.409 -0.356,0.849 0.072,2.193 -0.635,3.033 -0.207,6.612"
       id="path71" />
  </g>
</g>
<metadata
   id="metadata72">
  <rdf:RDF>
    <cc:Work
       rdf:about="" />
  </rdf:RDF>
</metadata>
</svg>
